<svg width="242" height="400" viewBox="0 0 242 400" fill="none" xmlns="http://www.w3.org/2000/svg">
<g clip-path="url(#clip0_586_13351)">
<rect width="242" height="400" fill="black"/>
<rect width="242" height="400" fill="black"/>
<rect opacity="0.8" x="11" y="11" width="220" height="378" stroke="white" stroke-width="2"/>
<path d="M53.45 212.412V220H52.19V210.06H53.17L59.33 217.802V210.074H60.59V220H59.526L53.45 212.412ZM65.8364 220.14C65.2857 220.14 64.7817 220.037 64.3244 219.832C63.8764 219.627 63.4891 219.351 63.1624 219.006C62.8451 218.661 62.5977 218.259 62.4204 217.802C62.2431 217.345 62.1544 216.864 62.1544 216.36C62.1544 215.847 62.2431 215.361 62.4204 214.904C62.6071 214.447 62.8591 214.045 63.1764 213.7C63.5031 213.355 63.8904 213.079 64.3384 212.874C64.7957 212.669 65.2951 212.566 65.8364 212.566C66.3777 212.566 66.8771 212.669 67.3344 212.874C67.7917 213.079 68.1791 213.355 68.4964 213.7C68.8231 214.045 69.0751 214.447 69.2524 214.904C69.4391 215.361 69.5324 215.847 69.5324 216.36C69.5324 216.864 69.4437 217.345 69.2664 217.802C69.0891 218.259 68.8371 218.661 68.5104 219.006C68.1837 219.351 67.7917 219.627 67.3344 219.832C66.8864 220.037 66.3871 220.14 65.8364 220.14ZM63.4144 216.374C63.4144 216.757 63.4751 217.111 63.5964 217.438C63.7271 217.765 63.8997 218.049 64.1144 218.292C64.3384 218.535 64.5951 218.726 64.8844 218.866C65.1831 219.006 65.5004 219.076 65.8364 219.076C66.1724 219.076 66.4851 219.006 66.7744 218.866C67.0731 218.726 67.3344 218.535 67.5584 218.292C67.7824 218.04 67.9551 217.751 68.0764 217.424C68.2071 217.088 68.2724 216.729 68.2724 216.346C68.2724 215.973 68.2071 215.623 68.0764 215.296C67.9551 214.96 67.7824 214.671 67.5584 214.428C67.3344 214.176 67.0731 213.98 66.7744 213.84C66.4851 213.7 66.1724 213.63 65.8364 213.63C65.5004 213.63 65.1831 213.705 64.8844 213.854C64.5951 213.994 64.3384 214.19 64.1144 214.442C63.8997 214.685 63.7271 214.974 63.5964 215.31C63.4751 215.637 63.4144 215.991 63.4144 216.374ZM77.3673 220H76.1353V215.912C76.1353 215.128 76.0139 214.559 75.7713 214.204C75.5379 213.849 75.1786 213.672 74.6933 213.672C74.4413 213.672 74.1893 213.723 73.9373 213.826C73.6853 213.919 73.4473 214.05 73.2233 214.218C72.9993 214.386 72.8033 214.587 72.6353 214.82C72.4673 215.053 72.3413 215.31 72.2573 215.59V220H71.0253V212.692H72.1453V214.26C72.4346 213.747 72.8499 213.336 73.3913 213.028C73.9419 212.72 74.5393 212.566 75.1833 212.566C75.6033 212.566 75.9533 212.645 76.2333 212.804C76.5133 212.953 76.7373 213.168 76.9053 213.448C77.0733 213.719 77.1899 214.041 77.2553 214.414C77.3299 214.787 77.3673 215.193 77.3673 215.632V220ZM84.7001 220.14C84.3547 220.14 84.0327 220.084 83.7341 219.972C83.4354 219.851 83.1741 219.687 82.9501 219.482C82.7354 219.277 82.5627 219.039 82.4321 218.768C82.3107 218.488 82.2501 218.185 82.2501 217.858C82.2501 217.522 82.3247 217.219 82.4741 216.948C82.6234 216.668 82.8334 216.43 83.1041 216.234C83.3841 216.038 83.7107 215.884 84.0841 215.772C84.4667 215.66 84.8821 215.604 85.3301 215.604C85.6847 215.604 86.0441 215.637 86.4081 215.702C86.7721 215.767 87.0941 215.856 87.3741 215.968V215.38C87.3741 214.783 87.2061 214.316 86.8701 213.98C86.5341 213.635 86.0581 213.462 85.4421 213.462C84.7047 213.462 83.9301 213.747 83.1181 214.316L82.7121 213.518C83.6547 212.883 84.6021 212.566 85.5541 212.566C86.5154 212.566 87.2621 212.823 87.7941 213.336C88.3354 213.849 88.6061 214.573 88.6061 215.506V218.488C88.6061 218.777 88.7367 218.927 88.9981 218.936V220C88.8674 220.019 88.7601 220.033 88.6761 220.042C88.5921 220.051 88.5034 220.056 88.4101 220.056C88.1674 220.056 87.9714 219.986 87.8221 219.846C87.6821 219.697 87.5981 219.519 87.5701 219.314L87.5421 218.796C87.2154 219.235 86.8001 219.571 86.2961 219.804C85.8014 220.028 85.2694 220.14 84.7001 220.14ZM85.0221 219.216C85.4607 219.216 85.8667 219.137 86.2401 218.978C86.6227 218.81 86.9121 218.591 87.1081 218.32C87.2854 218.143 87.3741 217.961 87.3741 217.774V216.696C86.7767 216.463 86.1561 216.346 85.5121 216.346C84.8961 216.346 84.3921 216.477 84.0001 216.738C83.6174 216.999 83.4261 217.34 83.4261 217.76C83.4261 217.965 83.4634 218.157 83.5381 218.334C83.6221 218.511 83.7341 218.665 83.8741 218.796C84.0234 218.927 84.1961 219.029 84.3921 219.104C84.5881 219.179 84.7981 219.216 85.0221 219.216ZM90.604 209.78H91.836V218.11C91.836 218.381 91.906 218.595 92.046 218.754C92.1954 218.903 92.4007 218.978 92.662 218.978C92.7647 218.978 92.886 218.964 93.026 218.936C93.166 218.899 93.2967 218.857 93.418 218.81L93.614 219.804C93.4087 219.888 93.166 219.958 92.886 220.014C92.606 220.07 92.3587 220.098 92.144 220.098C91.668 220.098 91.29 219.963 91.01 219.692C90.7394 219.421 90.604 219.043 90.604 218.558V209.78ZM94.5819 220V212.692H95.8139V220H94.5819ZM94.5819 211.32V209.78H95.8139V211.32H94.5819ZM100.608 220.14C100.123 220.14 99.6798 220.037 99.2785 219.832C98.8771 219.627 98.5318 219.351 98.2425 219.006C97.9531 218.651 97.7291 218.245 97.5705 217.788C97.4118 217.331 97.3325 216.85 97.3325 216.346C97.3325 215.833 97.4211 215.347 97.5985 214.89C97.7758 214.433 98.0185 214.031 98.3265 213.686C98.6438 213.341 99.0125 213.07 99.4325 212.874C99.8525 212.669 100.305 212.566 100.79 212.566C101.36 212.566 101.878 212.706 102.344 212.986C102.811 213.266 103.18 213.63 103.45 214.078V212.692H104.542V221.414C104.542 221.703 104.673 221.853 104.934 221.862V222.926C104.71 222.954 104.491 222.968 104.276 222.968C104.015 222.968 103.786 222.87 103.59 222.674C103.404 222.487 103.31 222.259 103.31 221.988V218.558C102.638 219.613 101.738 220.14 100.608 220.14ZM101.028 219.076C101.551 219.076 101.999 218.927 102.372 218.628C102.755 218.32 103.068 217.947 103.31 217.508V215.408C103.264 215.175 103.166 214.951 103.016 214.736C102.867 214.512 102.685 214.321 102.47 214.162C102.265 214.003 102.036 213.877 101.784 213.784C101.542 213.681 101.299 213.63 101.056 213.63C100.692 213.63 100.361 213.709 100.062 213.868C99.7638 214.017 99.5025 214.223 99.2785 214.484C99.0638 214.736 98.8958 215.03 98.7745 215.366C98.6531 215.693 98.5925 216.029 98.5925 216.374C98.5925 216.738 98.6531 217.088 98.7745 217.424C98.8958 217.751 99.0638 218.035 99.2785 218.278C99.4931 218.521 99.7498 218.717 100.048 218.866C100.347 219.006 100.674 219.076 101.028 219.076ZM108.785 220.14C108.02 220.14 107.441 219.883 107.049 219.37C106.657 218.857 106.461 218.091 106.461 217.074V212.692H107.693V216.836C107.693 218.329 108.211 219.076 109.247 219.076C109.751 219.076 110.222 218.917 110.661 218.6C111.109 218.273 111.44 217.83 111.655 217.27V212.692H112.887V218.488C112.887 218.777 113.018 218.927 113.279 218.936V220C113.139 220.019 113.027 220.028 112.943 220.028C112.868 220.037 112.794 220.042 112.719 220.042C112.476 220.042 112.271 219.972 112.103 219.832C111.944 219.683 111.86 219.501 111.851 219.286L111.823 218.432C111.496 218.983 111.067 219.407 110.535 219.706C110.003 219.995 109.42 220.14 108.785 220.14ZM116.815 220.14C116.47 220.14 116.148 220.084 115.849 219.972C115.551 219.851 115.289 219.687 115.065 219.482C114.851 219.277 114.678 219.039 114.547 218.768C114.426 218.488 114.365 218.185 114.365 217.858C114.365 217.522 114.44 217.219 114.589 216.948C114.739 216.668 114.949 216.43 115.219 216.234C115.499 216.038 115.826 215.884 116.199 215.772C116.582 215.66 116.997 215.604 117.445 215.604C117.8 215.604 118.159 215.637 118.523 215.702C118.887 215.767 119.209 215.856 119.489 215.968V215.38C119.489 214.783 119.321 214.316 118.985 213.98C118.649 213.635 118.173 213.462 117.557 213.462C116.82 213.462 116.045 213.747 115.233 214.316L114.827 213.518C115.77 212.883 116.717 212.566 117.669 212.566C118.631 212.566 119.377 212.823 119.909 213.336C120.451 213.849 120.721 214.573 120.721 215.506V218.488C120.721 218.777 120.852 218.927 121.113 218.936V220C120.983 220.019 120.875 220.033 120.791 220.042C120.707 220.051 120.619 220.056 120.525 220.056C120.283 220.056 120.087 219.986 119.937 219.846C119.797 219.697 119.713 219.519 119.685 219.314L119.657 218.796C119.331 219.235 118.915 219.571 118.411 219.804C117.917 220.028 117.385 220.14 116.815 220.14ZM117.137 219.216C117.576 219.216 117.982 219.137 118.355 218.978C118.738 218.81 119.027 218.591 119.223 218.32C119.401 218.143 119.489 217.961 119.489 217.774V216.696C118.892 216.463 118.271 216.346 117.627 216.346C117.011 216.346 116.507 216.477 116.115 216.738C115.733 216.999 115.541 217.34 115.541 217.76C115.541 217.965 115.579 218.157 115.653 218.334C115.737 218.511 115.849 218.665 115.989 218.796C116.139 218.927 116.311 219.029 116.507 219.104C116.703 219.179 116.913 219.216 117.137 219.216ZM130.096 213.77C129.48 213.789 128.934 213.947 128.458 214.246C127.992 214.545 127.66 214.96 127.464 215.492V220H126.232V212.692H127.38V214.386C127.632 213.882 127.964 213.476 128.374 213.168C128.785 212.851 129.224 212.673 129.69 212.636C129.784 212.636 129.863 212.636 129.928 212.636C129.994 212.636 130.05 212.641 130.096 212.65V213.77ZM134.388 220.14C133.837 220.14 133.333 220.042 132.876 219.846C132.419 219.641 132.027 219.365 131.7 219.02C131.373 218.675 131.117 218.273 130.93 217.816C130.753 217.349 130.664 216.859 130.664 216.346C130.664 215.833 130.753 215.347 130.93 214.89C131.117 214.433 131.373 214.031 131.7 213.686C132.036 213.341 132.433 213.07 132.89 212.874C133.347 212.669 133.851 212.566 134.402 212.566C134.953 212.566 135.452 212.669 135.9 212.874C136.357 213.079 136.745 213.355 137.062 213.7C137.379 214.036 137.622 214.433 137.79 214.89C137.967 215.338 138.056 215.805 138.056 216.29C138.056 216.393 138.051 216.486 138.042 216.57C138.042 216.654 138.037 216.719 138.028 216.766H131.966C131.994 217.13 132.078 217.461 132.218 217.76C132.358 218.059 132.54 218.315 132.764 218.53C132.988 218.745 133.24 218.913 133.52 219.034C133.809 219.155 134.113 219.216 134.43 219.216C134.654 219.216 134.873 219.188 135.088 219.132C135.303 219.067 135.503 218.983 135.69 218.88C135.877 218.777 136.04 218.651 136.18 218.502C136.329 218.353 136.441 218.185 136.516 217.998L137.58 218.292C137.459 218.563 137.291 218.81 137.076 219.034C136.871 219.258 136.628 219.454 136.348 219.622C136.077 219.781 135.774 219.907 135.438 220C135.102 220.093 134.752 220.14 134.388 220.14ZM136.894 215.856C136.866 215.511 136.777 215.193 136.628 214.904C136.488 214.605 136.306 214.353 136.082 214.148C135.867 213.943 135.615 213.784 135.326 213.672C135.037 213.551 134.729 213.49 134.402 213.49C134.075 213.49 133.767 213.551 133.478 213.672C133.189 213.784 132.932 213.947 132.708 214.162C132.493 214.367 132.316 214.615 132.176 214.904C132.045 215.193 131.966 215.511 131.938 215.856H136.894ZM143.36 220.14C142.753 220.14 142.216 219.991 141.75 219.692C141.292 219.393 140.928 219.015 140.658 218.558V222.982H139.426V212.692H140.518V214.064C140.807 213.616 141.18 213.257 141.638 212.986C142.104 212.706 142.618 212.566 143.178 212.566C143.682 212.566 144.144 212.669 144.564 212.874C144.984 213.079 145.348 213.359 145.656 213.714C145.964 214.059 146.202 214.461 146.37 214.918C146.547 215.375 146.636 215.851 146.636 216.346C146.636 216.869 146.556 217.363 146.398 217.83C146.239 218.287 146.015 218.689 145.726 219.034C145.436 219.37 145.091 219.641 144.69 219.846C144.288 220.042 143.845 220.14 143.36 220.14ZM142.982 219.076C143.346 219.076 143.672 219.001 143.962 218.852C144.26 218.693 144.512 218.488 144.718 218.236C144.932 217.975 145.096 217.681 145.208 217.354C145.32 217.027 145.376 216.691 145.376 216.346C145.376 215.982 145.31 215.637 145.18 215.31C145.049 214.974 144.872 214.685 144.648 214.442C144.424 214.19 144.158 213.994 143.85 213.854C143.551 213.705 143.224 213.63 142.87 213.63C142.646 213.63 142.412 213.677 142.17 213.77C141.936 213.854 141.712 213.971 141.498 214.12C141.292 214.26 141.11 214.433 140.952 214.638C140.802 214.834 140.704 215.044 140.658 215.268V217.354C140.76 217.597 140.891 217.825 141.05 218.04C141.208 218.245 141.39 218.427 141.596 218.586C141.801 218.735 142.02 218.857 142.254 218.95C142.487 219.034 142.73 219.076 142.982 219.076ZM152.012 213.77C151.396 213.789 150.85 213.947 150.374 214.246C149.908 214.545 149.576 214.96 149.38 215.492V220H148.148V212.692H149.296V214.386C149.548 213.882 149.88 213.476 150.29 213.168C150.701 212.851 151.14 212.673 151.606 212.636C151.7 212.636 151.779 212.636 151.844 212.636C151.91 212.636 151.966 212.641 152.012 212.65V213.77ZM156.304 220.14C155.754 220.14 155.25 220.042 154.792 219.846C154.335 219.641 153.943 219.365 153.616 219.02C153.29 218.675 153.033 218.273 152.846 217.816C152.669 217.349 152.58 216.859 152.58 216.346C152.58 215.833 152.669 215.347 152.846 214.89C153.033 214.433 153.29 214.031 153.616 213.686C153.952 213.341 154.349 213.07 154.806 212.874C155.264 212.669 155.768 212.566 156.318 212.566C156.869 212.566 157.368 212.669 157.816 212.874C158.274 213.079 158.661 213.355 158.978 213.7C159.296 214.036 159.538 214.433 159.706 214.89C159.884 215.338 159.972 215.805 159.972 216.29C159.972 216.393 159.968 216.486 159.958 216.57C159.958 216.654 159.954 216.719 159.944 216.766H153.882C153.91 217.13 153.994 217.461 154.134 217.76C154.274 218.059 154.456 218.315 154.68 218.53C154.904 218.745 155.156 218.913 155.436 219.034C155.726 219.155 156.029 219.216 156.346 219.216C156.57 219.216 156.79 219.188 157.004 219.132C157.219 219.067 157.42 218.983 157.606 218.88C157.793 218.777 157.956 218.651 158.096 218.502C158.246 218.353 158.358 218.185 158.432 217.998L159.496 218.292C159.375 218.563 159.207 218.81 158.992 219.034C158.787 219.258 158.544 219.454 158.264 219.622C157.994 219.781 157.69 219.907 157.354 220C157.018 220.093 156.668 220.14 156.304 220.14ZM158.81 215.856C158.782 215.511 158.694 215.193 158.544 214.904C158.404 214.605 158.222 214.353 157.998 214.148C157.784 213.943 157.532 213.784 157.242 213.672C156.953 213.551 156.645 213.49 156.318 213.49C155.992 213.49 155.684 213.551 155.394 213.672C155.105 213.784 154.848 213.947 154.624 214.162C154.41 214.367 154.232 214.615 154.092 214.904C153.962 215.193 153.882 215.511 153.854 215.856H158.81ZM167.684 220H166.452V215.912C166.452 215.156 166.321 214.596 166.06 214.232C165.798 213.859 165.416 213.672 164.912 213.672C164.669 213.672 164.426 213.723 164.184 213.826C163.941 213.919 163.712 214.05 163.498 214.218C163.292 214.386 163.106 214.587 162.938 214.82C162.779 215.053 162.658 215.31 162.574 215.59V220H161.342V209.78H162.574V214.26C162.863 213.728 163.255 213.313 163.75 213.014C164.244 212.715 164.786 212.566 165.374 212.566C165.803 212.566 166.167 212.645 166.466 212.804C166.764 212.963 167.002 213.177 167.18 213.448C167.357 213.719 167.483 214.045 167.558 214.428C167.642 214.801 167.684 215.203 167.684 215.632V220ZM172.833 220.14C172.283 220.14 171.779 220.042 171.321 219.846C170.864 219.641 170.472 219.365 170.145 219.02C169.819 218.675 169.562 218.273 169.375 217.816C169.198 217.349 169.109 216.859 169.109 216.346C169.109 215.833 169.198 215.347 169.375 214.89C169.562 214.433 169.819 214.031 170.145 213.686C170.481 213.341 170.878 213.07 171.335 212.874C171.793 212.669 172.297 212.566 172.847 212.566C173.398 212.566 173.897 212.669 174.345 212.874C174.803 213.079 175.19 213.355 175.507 213.7C175.825 214.036 176.067 214.433 176.235 214.89C176.413 215.338 176.501 215.805 176.501 216.29C176.501 216.393 176.497 216.486 176.487 216.57C176.487 216.654 176.483 216.719 176.473 216.766H170.411C170.439 217.13 170.523 217.461 170.663 217.76C170.803 218.059 170.985 218.315 171.209 218.53C171.433 218.745 171.685 218.913 171.965 219.034C172.255 219.155 172.558 219.216 172.875 219.216C173.099 219.216 173.319 219.188 173.533 219.132C173.748 219.067 173.949 218.983 174.135 218.88C174.322 218.777 174.485 218.651 174.625 218.502C174.775 218.353 174.887 218.185 174.961 217.998L176.025 218.292C175.904 218.563 175.736 218.81 175.521 219.034C175.316 219.258 175.073 219.454 174.793 219.622C174.523 219.781 174.219 219.907 173.883 220C173.547 220.093 173.197 220.14 172.833 220.14ZM175.339 215.856C175.311 215.511 175.223 215.193 175.073 214.904C174.933 214.605 174.751 214.353 174.527 214.148C174.313 213.943 174.061 213.784 173.771 213.672C173.482 213.551 173.174 213.49 172.847 213.49C172.521 213.49 172.213 213.551 171.923 213.672C171.634 213.784 171.377 213.947 171.153 214.162C170.939 214.367 170.761 214.615 170.621 214.904C170.491 215.193 170.411 215.511 170.383 215.856H175.339ZM184.213 220H182.981V215.912C182.981 215.128 182.86 214.559 182.617 214.204C182.384 213.849 182.024 213.672 181.539 213.672C181.287 213.672 181.035 213.723 180.783 213.826C180.531 213.919 180.293 214.05 180.069 214.218C179.845 214.386 179.649 214.587 179.481 214.82C179.313 215.053 179.187 215.31 179.103 215.59V220H177.871V212.692H178.991V214.26C179.28 213.747 179.696 213.336 180.237 213.028C180.788 212.72 181.385 212.566 182.029 212.566C182.449 212.566 182.799 212.645 183.079 212.804C183.359 212.953 183.583 213.168 183.751 213.448C183.919 213.719 184.036 214.041 184.101 214.414C184.176 214.787 184.213 215.193 184.213 215.632V220ZM189.139 220.14C188.635 220.14 188.168 220.037 187.739 219.832C187.309 219.627 186.941 219.351 186.633 219.006C186.325 218.661 186.082 218.259 185.905 217.802C185.737 217.345 185.653 216.864 185.653 216.36C185.653 215.847 185.732 215.361 185.891 214.904C186.059 214.437 186.287 214.031 186.577 213.686C186.875 213.341 187.225 213.07 187.627 212.874C188.037 212.669 188.485 212.566 188.971 212.566C189.559 212.566 190.081 212.72 190.539 213.028C191.005 213.336 191.374 213.709 191.645 214.148V209.78H192.877V218.488C192.877 218.777 193.007 218.927 193.269 218.936V220C193.138 220.019 193.031 220.033 192.947 220.042C192.872 220.051 192.797 220.056 192.723 220.056C192.48 220.056 192.265 219.977 192.079 219.818C191.901 219.65 191.813 219.459 191.813 219.244V218.628C191.523 219.104 191.136 219.477 190.651 219.748C190.175 220.009 189.671 220.14 189.139 220.14ZM189.433 219.076C189.657 219.076 189.885 219.034 190.119 218.95C190.361 218.866 190.585 218.749 190.791 218.6C191.005 218.451 191.187 218.278 191.337 218.082C191.495 217.877 191.598 217.662 191.645 217.438V215.338C191.561 215.105 191.435 214.885 191.267 214.68C191.099 214.465 190.907 214.283 190.693 214.134C190.487 213.975 190.263 213.854 190.021 213.77C189.787 213.677 189.554 213.63 189.321 213.63C188.957 213.63 188.625 213.709 188.327 213.868C188.037 214.017 187.785 214.223 187.571 214.484C187.365 214.736 187.207 215.03 187.095 215.366C186.983 215.693 186.927 216.029 186.927 216.374C186.927 216.738 186.992 217.088 187.123 217.424C187.253 217.751 187.431 218.035 187.655 218.278C187.879 218.521 188.14 218.717 188.439 218.866C188.747 219.006 189.078 219.076 189.433 219.076ZM198.167 220.14C197.617 220.14 197.113 220.042 196.655 219.846C196.198 219.641 195.806 219.365 195.479 219.02C195.153 218.675 194.896 218.273 194.709 217.816C194.532 217.349 194.443 216.859 194.443 216.346C194.443 215.833 194.532 215.347 194.709 214.89C194.896 214.433 195.153 214.031 195.479 213.686C195.815 213.341 196.212 213.07 196.669 212.874C197.127 212.669 197.631 212.566 198.181 212.566C198.732 212.566 199.231 212.669 199.679 212.874C200.137 213.079 200.524 213.355 200.841 213.7C201.159 214.036 201.401 214.433 201.569 214.89C201.747 215.338 201.835 215.805 201.835 216.29C201.835 216.393 201.831 216.486 201.821 216.57C201.821 216.654 201.817 216.719 201.807 216.766H195.745C195.773 217.13 195.857 217.461 195.997 217.76C196.137 218.059 196.319 218.315 196.543 218.53C196.767 218.745 197.019 218.913 197.299 219.034C197.589 219.155 197.892 219.216 198.209 219.216C198.433 219.216 198.653 219.188 198.867 219.132C199.082 219.067 199.283 218.983 199.469 218.88C199.656 218.777 199.819 218.651 199.959 218.502C200.109 218.353 200.221 218.185 200.295 217.998L201.359 218.292C201.238 218.563 201.07 218.81 200.855 219.034C200.65 219.258 200.407 219.454 200.127 219.622C199.857 219.781 199.553 219.907 199.217 220C198.881 220.093 198.531 220.14 198.167 220.14ZM200.673 215.856C200.645 215.511 200.557 215.193 200.407 214.904C200.267 214.605 200.085 214.353 199.861 214.148C199.647 213.943 199.395 213.784 199.105 213.672C198.816 213.551 198.508 213.49 198.181 213.49C197.855 213.49 197.547 213.551 197.257 213.672C196.968 213.784 196.711 213.947 196.487 214.162C196.273 214.367 196.095 214.615 195.955 214.904C195.825 215.193 195.745 215.511 195.717 215.856H200.673ZM207.069 213.77C206.453 213.789 205.907 213.947 205.431 214.246C204.964 214.545 204.633 214.96 204.437 215.492V220H203.205V212.692H204.353V214.386C204.605 213.882 204.936 213.476 205.347 213.168C205.758 212.851 206.196 212.673 206.663 212.636C206.756 212.636 206.836 212.636 206.901 212.636C206.966 212.636 207.022 212.641 207.069 212.65V213.77ZM208.291 220V212.692H209.523V220H208.291ZM208.291 211.32V209.78H209.523V211.32H208.291ZM215.297 219.636C215.223 219.673 215.125 219.72 215.003 219.776C214.882 219.823 214.742 219.874 214.583 219.93C214.434 219.977 214.266 220.014 214.079 220.042C213.902 220.079 213.715 220.098 213.519 220.098C213.071 220.098 212.684 219.977 212.357 219.734C212.031 219.482 211.867 219.095 211.867 218.572V213.658H210.873V212.692H211.867V210.256H213.099V212.692H214.737V213.658H213.099V218.194C213.118 218.465 213.207 218.661 213.365 218.782C213.524 218.903 213.711 218.964 213.925 218.964C214.168 218.964 214.387 218.927 214.583 218.852C214.789 218.768 214.929 218.703 215.003 218.656L215.297 219.636ZM55.858 234.77C55.242 234.789 54.696 234.947 54.22 235.246C53.7533 235.545 53.422 235.96 53.226 236.492V241H51.994V233.692H53.142V235.386C53.394 234.882 53.7253 234.476 54.136 234.168C54.5467 233.851 54.9853 233.673 55.452 233.636C55.5453 233.636 55.6247 233.636 55.69 233.636C55.7553 233.636 55.8113 233.641 55.858 233.65V234.77ZM60.1499 241.14C59.5992 241.14 59.0952 241.042 58.6379 240.846C58.1805 240.641 57.7885 240.365 57.4619 240.02C57.1352 239.675 56.8785 239.273 56.6919 238.816C56.5145 238.349 56.4259 237.859 56.4259 237.346C56.4259 236.833 56.5145 236.347 56.6919 235.89C56.8785 235.433 57.1352 235.031 57.4619 234.686C57.7979 234.341 58.1945 234.07 58.6519 233.874C59.1092 233.669 59.6132 233.566 60.1639 233.566C60.7145 233.566 61.2139 233.669 61.6619 233.874C62.1192 234.079 62.5065 234.355 62.8239 234.7C63.1412 235.036 63.3839 235.433 63.5519 235.89C63.7292 236.338 63.8179 236.805 63.8179 237.29C63.8179 237.393 63.8132 237.486 63.8039 237.57C63.8039 237.654 63.7992 237.719 63.7899 237.766H57.7279C57.7559 238.13 57.8399 238.461 57.9799 238.76C58.1199 239.059 58.3019 239.315 58.5259 239.53C58.7499 239.745 59.0019 239.913 59.2819 240.034C59.5712 240.155 59.8745 240.216 60.1919 240.216C60.4159 240.216 60.6352 240.188 60.8499 240.132C61.0645 240.067 61.2652 239.983 61.4519 239.88C61.6385 239.777 61.8019 239.651 61.9419 239.502C62.0912 239.353 62.2032 239.185 62.2779 238.998L63.3419 239.292C63.2205 239.563 63.0525 239.81 62.8379 240.034C62.6325 240.258 62.3899 240.454 62.1099 240.622C61.8392 240.781 61.5359 240.907 61.1999 241C60.8639 241.093 60.5139 241.14 60.1499 241.14ZM62.6559 236.856C62.6279 236.511 62.5392 236.193 62.3899 235.904C62.2499 235.605 62.0679 235.353 61.8439 235.148C61.6292 234.943 61.3772 234.784 61.0879 234.672C60.7985 234.551 60.4905 234.49 60.1639 234.49C59.8372 234.49 59.5292 234.551 59.2399 234.672C58.9505 234.784 58.6939 234.947 58.4699 235.162C58.2552 235.367 58.0779 235.615 57.9379 235.904C57.8072 236.193 57.7279 236.511 57.6999 236.856H62.6559ZM69.1214 241.14C68.5147 241.14 67.978 240.991 67.5114 240.692C67.054 240.393 66.69 240.015 66.4194 239.558V243.982H65.1874V233.692H66.2794V235.064C66.5687 234.616 66.942 234.257 67.3994 233.986C67.866 233.706 68.3794 233.566 68.9394 233.566C69.4434 233.566 69.9054 233.669 70.3254 233.874C70.7454 234.079 71.1094 234.359 71.4174 234.714C71.7254 235.059 71.9634 235.461 72.1314 235.918C72.3087 236.375 72.3974 236.851 72.3974 237.346C72.3974 237.869 72.318 238.363 72.1594 238.83C72.0007 239.287 71.7767 239.689 71.4874 240.034C71.198 240.37 70.8527 240.641 70.4514 240.846C70.05 241.042 69.6067 241.14 69.1214 241.14ZM68.7434 240.076C69.1074 240.076 69.434 240.001 69.7234 239.852C70.022 239.693 70.274 239.488 70.4794 239.236C70.694 238.975 70.8574 238.681 70.9694 238.354C71.0814 238.027 71.1374 237.691 71.1374 237.346C71.1374 236.982 71.072 236.637 70.9414 236.31C70.8107 235.974 70.6334 235.685 70.4094 235.442C70.1854 235.19 69.9194 234.994 69.6114 234.854C69.3127 234.705 68.986 234.63 68.6314 234.63C68.4074 234.63 68.174 234.677 67.9314 234.77C67.698 234.854 67.474 234.971 67.2594 235.12C67.054 235.26 66.872 235.433 66.7134 235.638C66.564 235.834 66.466 236.044 66.4194 236.268V238.354C66.522 238.597 66.6527 238.825 66.8114 239.04C66.97 239.245 67.152 239.427 67.3574 239.586C67.5627 239.735 67.782 239.857 68.0154 239.95C68.2487 240.034 68.4914 240.076 68.7434 240.076ZM77.774 234.77C77.158 234.789 76.612 234.947 76.136 235.246C75.6693 235.545 75.338 235.96 75.142 236.492V241H73.91V233.692H75.058V235.386C75.31 234.882 75.6413 234.476 76.052 234.168C76.4627 233.851 76.9013 233.673 77.368 233.636C77.4613 233.636 77.5407 233.636 77.606 233.636C77.6713 233.636 77.7273 233.641 77.774 233.65V234.77ZM82.0659 241.14C81.5152 241.14 81.0112 241.042 80.5539 240.846C80.0966 240.641 79.7046 240.365 79.3779 240.02C79.0512 239.675 78.7946 239.273 78.6079 238.816C78.4306 238.349 78.3419 237.859 78.3419 237.346C78.3419 236.833 78.4306 236.347 78.6079 235.89C78.7946 235.433 79.0512 235.031 79.3779 234.686C79.7139 234.341 80.1106 234.07 80.5679 233.874C81.0252 233.669 81.5292 233.566 82.0799 233.566C82.6306 233.566 83.1299 233.669 83.5779 233.874C84.0352 234.079 84.4226 234.355 84.7399 234.7C85.0572 235.036 85.2999 235.433 85.4679 235.89C85.6452 236.338 85.7339 236.805 85.7339 237.29C85.7339 237.393 85.7292 237.486 85.7199 237.57C85.7199 237.654 85.7152 237.719 85.7059 237.766H79.6439C79.6719 238.13 79.7559 238.461 79.8959 238.76C80.0359 239.059 80.2179 239.315 80.4419 239.53C80.6659 239.745 80.9179 239.913 81.1979 240.034C81.4872 240.155 81.7906 240.216 82.1079 240.216C82.3319 240.216 82.5512 240.188 82.7659 240.132C82.9806 240.067 83.1812 239.983 83.3679 239.88C83.5546 239.777 83.7179 239.651 83.8579 239.502C84.0072 239.353 84.1192 239.185 84.1939 238.998L85.2579 239.292C85.1366 239.563 84.9686 239.81 84.7539 240.034C84.5486 240.258 84.3059 240.454 84.0259 240.622C83.7552 240.781 83.4519 240.907 83.1159 241C82.7799 241.093 82.4299 241.14 82.0659 241.14ZM84.5719 236.856C84.5439 236.511 84.4552 236.193 84.3059 235.904C84.1659 235.605 83.9839 235.353 83.7599 235.148C83.5452 234.943 83.2932 234.784 83.0039 234.672C82.7146 234.551 82.4066 234.49 82.0799 234.49C81.7532 234.49 81.4452 234.551 81.1559 234.672C80.8666 234.784 80.6099 234.947 80.3859 235.162C80.1712 235.367 79.9939 235.615 79.8539 235.904C79.7232 236.193 79.6439 236.511 79.6159 236.856H84.5719ZM93.4454 241H92.2134V236.912C92.2134 236.156 92.0827 235.596 91.8214 235.232C91.56 234.859 91.1774 234.672 90.6734 234.672C90.4307 234.672 90.188 234.723 89.9454 234.826C89.7027 234.919 89.474 235.05 89.2594 235.218C89.054 235.386 88.8674 235.587 88.6994 235.82C88.5407 236.053 88.4194 236.31 88.3354 236.59V241H87.1034V230.78H88.3354V235.26C88.6247 234.728 89.0167 234.313 89.5114 234.014C90.006 233.715 90.5474 233.566 91.1354 233.566C91.5647 233.566 91.9287 233.645 92.2274 233.804C92.526 233.963 92.764 234.177 92.9414 234.448C93.1187 234.719 93.2447 235.045 93.3194 235.428C93.4034 235.801 93.4454 236.203 93.4454 236.632V241ZM98.5952 241.14C98.0445 241.14 97.5405 241.042 97.0832 240.846C96.6259 240.641 96.2339 240.365 95.9072 240.02C95.5805 239.675 95.3239 239.273 95.1372 238.816C94.9599 238.349 94.8712 237.859 94.8712 237.346C94.8712 236.833 94.9599 236.347 95.1372 235.89C95.3239 235.433 95.5805 235.031 95.9072 234.686C96.2432 234.341 96.6399 234.07 97.0972 233.874C97.5545 233.669 98.0585 233.566 98.6092 233.566C99.1599 233.566 99.6592 233.669 100.107 233.874C100.565 234.079 100.952 234.355 101.269 234.7C101.587 235.036 101.829 235.433 101.997 235.89C102.175 236.338 102.263 236.805 102.263 237.29C102.263 237.393 102.259 237.486 102.249 237.57C102.249 237.654 102.245 237.719 102.235 237.766H96.1732C96.2012 238.13 96.2852 238.461 96.4252 238.76C96.5652 239.059 96.7472 239.315 96.9712 239.53C97.1952 239.745 97.4472 239.913 97.7272 240.034C98.0165 240.155 98.3199 240.216 98.6372 240.216C98.8612 240.216 99.0805 240.188 99.2952 240.132C99.5099 240.067 99.7105 239.983 99.8972 239.88C100.084 239.777 100.247 239.651 100.387 239.502C100.537 239.353 100.649 239.185 100.723 238.998L101.787 239.292C101.666 239.563 101.498 239.81 101.283 240.034C101.078 240.258 100.835 240.454 100.555 240.622C100.285 240.781 99.9812 240.907 99.6452 241C99.3092 241.093 98.9592 241.14 98.5952 241.14ZM101.101 236.856C101.073 236.511 100.985 236.193 100.835 235.904C100.695 235.605 100.513 235.353 100.289 235.148C100.075 234.943 99.8225 234.784 99.5332 234.672C99.2439 234.551 98.9359 234.49 98.6092 234.49C98.2825 234.49 97.9745 234.551 97.6852 234.672C97.3959 234.784 97.1392 234.947 96.9152 235.162C96.7005 235.367 96.5232 235.615 96.3832 235.904C96.2525 236.193 96.1732 236.511 96.1452 236.856H101.101ZM109.975 241H108.743V236.912C108.743 236.128 108.621 235.559 108.379 235.204C108.145 234.849 107.786 234.672 107.301 234.672C107.049 234.672 106.797 234.723 106.545 234.826C106.293 234.919 106.055 235.05 105.831 235.218C105.607 235.386 105.411 235.587 105.243 235.82C105.075 236.053 104.949 236.31 104.865 236.59V241H103.633V233.692H104.753V235.26C105.042 234.747 105.457 234.336 105.999 234.028C106.549 233.72 107.147 233.566 107.791 233.566C108.211 233.566 108.561 233.645 108.841 233.804C109.121 233.953 109.345 234.168 109.513 234.448C109.681 234.719 109.797 235.041 109.863 235.414C109.937 235.787 109.975 236.193 109.975 236.632V241ZM114.9 241.14C114.396 241.14 113.93 241.037 113.5 240.832C113.071 240.627 112.702 240.351 112.394 240.006C112.086 239.661 111.844 239.259 111.666 238.802C111.498 238.345 111.414 237.864 111.414 237.36C111.414 236.847 111.494 236.361 111.652 235.904C111.82 235.437 112.049 235.031 112.338 234.686C112.637 234.341 112.987 234.07 113.388 233.874C113.799 233.669 114.247 233.566 114.732 233.566C115.32 233.566 115.843 233.72 116.3 234.028C116.767 234.336 117.136 234.709 117.406 235.148V230.78H118.638V239.488C118.638 239.777 118.769 239.927 119.03 239.936V241C118.9 241.019 118.792 241.033 118.708 241.042C118.634 241.051 118.559 241.056 118.484 241.056C118.242 241.056 118.027 240.977 117.84 240.818C117.663 240.65 117.574 240.459 117.574 240.244V239.628C117.285 240.104 116.898 240.477 116.412 240.748C115.936 241.009 115.432 241.14 114.9 241.14ZM115.194 240.076C115.418 240.076 115.647 240.034 115.88 239.95C116.123 239.866 116.347 239.749 116.552 239.6C116.767 239.451 116.949 239.278 117.098 239.082C117.257 238.877 117.36 238.662 117.406 238.438V236.338C117.322 236.105 117.196 235.885 117.028 235.68C116.86 235.465 116.669 235.283 116.454 235.134C116.249 234.975 116.025 234.854 115.782 234.77C115.549 234.677 115.316 234.63 115.082 234.63C114.718 234.63 114.387 234.709 114.088 234.868C113.799 235.017 113.547 235.223 113.332 235.484C113.127 235.736 112.968 236.03 112.856 236.366C112.744 236.693 112.688 237.029 112.688 237.374C112.688 237.738 112.754 238.088 112.884 238.424C113.015 238.751 113.192 239.035 113.416 239.278C113.64 239.521 113.902 239.717 114.2 239.866C114.508 240.006 114.84 240.076 115.194 240.076ZM123.929 241.14C123.379 241.14 122.875 241.042 122.417 240.846C121.96 240.641 121.568 240.365 121.241 240.02C120.915 239.675 120.658 239.273 120.471 238.816C120.294 238.349 120.205 237.859 120.205 237.346C120.205 236.833 120.294 236.347 120.471 235.89C120.658 235.433 120.915 235.031 121.241 234.686C121.577 234.341 121.974 234.07 122.431 233.874C122.889 233.669 123.393 233.566 123.943 233.566C124.494 233.566 124.993 233.669 125.441 233.874C125.899 234.079 126.286 234.355 126.603 234.7C126.921 235.036 127.163 235.433 127.331 235.89C127.509 236.338 127.597 236.805 127.597 237.29C127.597 237.393 127.593 237.486 127.583 237.57C127.583 237.654 127.579 237.719 127.569 237.766H121.507C121.535 238.13 121.619 238.461 121.759 238.76C121.899 239.059 122.081 239.315 122.305 239.53C122.529 239.745 122.781 239.913 123.061 240.034C123.351 240.155 123.654 240.216 123.971 240.216C124.195 240.216 124.415 240.188 124.629 240.132C124.844 240.067 125.045 239.983 125.231 239.88C125.418 239.777 125.581 239.651 125.721 239.502C125.871 239.353 125.983 239.185 126.057 238.998L127.121 239.292C127 239.563 126.832 239.81 126.617 240.034C126.412 240.258 126.169 240.454 125.889 240.622C125.619 240.781 125.315 240.907 124.979 241C124.643 241.093 124.293 241.14 123.929 241.14ZM126.435 236.856C126.407 236.511 126.319 236.193 126.169 235.904C126.029 235.605 125.847 235.353 125.623 235.148C125.409 234.943 125.157 234.784 124.867 234.672C124.578 234.551 124.27 234.49 123.943 234.49C123.617 234.49 123.309 234.551 123.019 234.672C122.73 234.784 122.473 234.947 122.249 235.162C122.035 235.367 121.857 235.615 121.717 235.904C121.587 236.193 121.507 236.511 121.479 236.856H126.435ZM132.831 234.77C132.215 234.789 131.669 234.947 131.193 235.246C130.726 235.545 130.395 235.96 130.199 236.492V241H128.967V233.692H130.115V235.386C130.367 234.882 130.698 234.476 131.109 234.168C131.519 233.851 131.958 233.673 132.425 233.636C132.518 233.636 132.597 233.636 132.663 233.636C132.728 233.636 132.784 233.641 132.831 233.65V234.77ZM134.053 241V233.692H135.285V241H134.053ZM134.053 232.32V230.78H135.285V232.32H134.053ZM141.059 240.636C140.984 240.673 140.886 240.72 140.765 240.776C140.644 240.823 140.504 240.874 140.345 240.93C140.196 240.977 140.028 241.014 139.841 241.042C139.664 241.079 139.477 241.098 139.281 241.098C138.833 241.098 138.446 240.977 138.119 240.734C137.792 240.482 137.629 240.095 137.629 239.572V234.658H136.635V233.692H137.629V231.256H138.861V233.692H140.499V234.658H138.861V239.194C138.88 239.465 138.968 239.661 139.127 239.782C139.286 239.903 139.472 239.964 139.687 239.964C139.93 239.964 140.149 239.927 140.345 239.852C140.55 239.768 140.69 239.703 140.765 239.656L141.059 240.636ZM145.252 237.332C145.252 236.819 145.341 236.333 145.518 235.876C145.695 235.419 145.947 235.022 146.274 234.686C146.601 234.341 146.988 234.07 147.436 233.874C147.893 233.669 148.402 233.566 148.962 233.566C149.69 233.566 150.315 233.729 150.838 234.056C151.37 234.373 151.771 234.803 152.042 235.344L150.838 235.722C150.651 235.377 150.39 235.111 150.054 234.924C149.718 234.728 149.345 234.63 148.934 234.63C148.598 234.63 148.281 234.7 147.982 234.84C147.683 234.971 147.427 235.157 147.212 235.4C146.997 235.643 146.825 235.927 146.694 236.254C146.573 236.581 146.512 236.94 146.512 237.332C146.512 237.715 146.577 238.074 146.708 238.41C146.839 238.746 147.011 239.04 147.226 239.292C147.45 239.535 147.707 239.726 147.996 239.866C148.295 240.006 148.612 240.076 148.948 240.076C149.163 240.076 149.373 240.048 149.578 239.992C149.793 239.927 149.984 239.843 150.152 239.74C150.329 239.637 150.483 239.521 150.614 239.39C150.745 239.25 150.838 239.101 150.894 238.942L152.098 239.306C151.986 239.577 151.827 239.824 151.622 240.048C151.426 240.272 151.193 240.463 150.922 240.622C150.651 240.781 150.348 240.907 150.012 241C149.685 241.093 149.34 241.14 148.976 241.14C148.425 241.14 147.921 241.037 147.464 240.832C147.007 240.627 146.615 240.351 146.288 240.006C145.961 239.661 145.705 239.259 145.518 238.802C145.341 238.335 145.252 237.845 145.252 237.332ZM155.748 241.14C154.983 241.14 154.404 240.883 154.012 240.37C153.62 239.857 153.424 239.091 153.424 238.074V233.692H154.656V237.836C154.656 239.329 155.174 240.076 156.21 240.076C156.714 240.076 157.185 239.917 157.624 239.6C158.072 239.273 158.403 238.83 158.618 238.27V233.692H159.85V239.488C159.85 239.777 159.981 239.927 160.242 239.936V241C160.102 241.019 159.99 241.028 159.906 241.028C159.831 241.037 159.757 241.042 159.682 241.042C159.439 241.042 159.234 240.972 159.066 240.832C158.907 240.683 158.823 240.501 158.814 240.286L158.786 239.432C158.459 239.983 158.03 240.407 157.498 240.706C156.966 240.995 156.383 241.14 155.748 241.14ZM161.93 230.78H163.162V239.11C163.162 239.381 163.232 239.595 163.372 239.754C163.522 239.903 163.727 239.978 163.988 239.978C164.091 239.978 164.212 239.964 164.352 239.936C164.492 239.899 164.623 239.857 164.744 239.81L164.94 240.804C164.735 240.888 164.492 240.958 164.212 241.014C163.932 241.07 163.685 241.098 163.47 241.098C162.994 241.098 162.616 240.963 162.336 240.692C162.066 240.421 161.93 240.043 161.93 239.558V230.78ZM169.842 241.14C169.235 241.14 168.699 240.991 168.232 240.692C167.775 240.393 167.411 240.015 167.14 239.558V243.982H165.908V233.692H167V235.064C167.289 234.616 167.663 234.257 168.12 233.986C168.587 233.706 169.1 233.566 169.66 233.566C170.164 233.566 170.626 233.669 171.046 233.874C171.466 234.079 171.83 234.359 172.138 234.714C172.446 235.059 172.684 235.461 172.852 235.918C173.029 236.375 173.118 236.851 173.118 237.346C173.118 237.869 173.039 238.363 172.88 238.83C172.721 239.287 172.497 239.689 172.208 240.034C171.919 240.37 171.573 240.641 171.172 240.846C170.771 241.042 170.327 241.14 169.842 241.14ZM169.464 240.076C169.828 240.076 170.155 240.001 170.444 239.852C170.743 239.693 170.995 239.488 171.2 239.236C171.415 238.975 171.578 238.681 171.69 238.354C171.802 238.027 171.858 237.691 171.858 237.346C171.858 236.982 171.793 236.637 171.662 236.31C171.531 235.974 171.354 235.685 171.13 235.442C170.906 235.19 170.64 234.994 170.332 234.854C170.033 234.705 169.707 234.63 169.352 234.63C169.128 234.63 168.895 234.677 168.652 234.77C168.419 234.854 168.195 234.971 167.98 235.12C167.775 235.26 167.593 235.433 167.434 235.638C167.285 235.834 167.187 236.044 167.14 236.268V238.354C167.243 238.597 167.373 238.825 167.532 239.04C167.691 239.245 167.873 239.427 168.078 239.586C168.283 239.735 168.503 239.857 168.736 239.95C168.969 240.034 169.212 240.076 169.464 240.076ZM176.507 241.14C176.161 241.14 175.839 241.084 175.541 240.972C175.242 240.851 174.981 240.687 174.757 240.482C174.542 240.277 174.369 240.039 174.239 239.768C174.117 239.488 174.057 239.185 174.057 238.858C174.057 238.522 174.131 238.219 174.281 237.948C174.43 237.668 174.64 237.43 174.911 237.234C175.191 237.038 175.517 236.884 175.891 236.772C176.273 236.66 176.689 236.604 177.137 236.604C177.491 236.604 177.851 236.637 178.215 236.702C178.579 236.767 178.901 236.856 179.181 236.968V236.38C179.181 235.783 179.013 235.316 178.677 234.98C178.341 234.635 177.865 234.462 177.249 234.462C176.511 234.462 175.737 234.747 174.925 235.316L174.519 234.518C175.461 233.883 176.409 233.566 177.361 233.566C178.322 233.566 179.069 233.823 179.601 234.336C180.142 234.849 180.413 235.573 180.413 236.506V239.488C180.413 239.777 180.543 239.927 180.805 239.936V241C180.674 241.019 180.567 241.033 180.483 241.042C180.399 241.051 180.31 241.056 180.217 241.056C179.974 241.056 179.778 240.986 179.629 240.846C179.489 240.697 179.405 240.519 179.377 240.314L179.349 239.796C179.022 240.235 178.607 240.571 178.103 240.804C177.608 241.028 177.076 241.14 176.507 241.14ZM176.829 240.216C177.267 240.216 177.673 240.137 178.047 239.978C178.429 239.81 178.719 239.591 178.915 239.32C179.092 239.143 179.181 238.961 179.181 238.774V237.696C178.583 237.463 177.963 237.346 177.319 237.346C176.703 237.346 176.199 237.477 175.807 237.738C175.424 237.999 175.233 238.34 175.233 238.76C175.233 238.965 175.27 239.157 175.345 239.334C175.429 239.511 175.541 239.665 175.681 239.796C175.83 239.927 176.003 240.029 176.199 240.104C176.395 240.179 176.605 240.216 176.829 240.216ZM52.022 251.78H53.254V260.11C53.254 260.381 53.324 260.595 53.464 260.754C53.6133 260.903 53.8187 260.978 54.08 260.978C54.1827 260.978 54.304 260.964 54.444 260.936C54.584 260.899 54.7147 260.857 54.836 260.81L55.032 261.804C54.8267 261.888 54.584 261.958 54.304 262.014C54.024 262.07 53.7767 262.098 53.562 262.098C53.086 262.098 52.708 261.963 52.428 261.692C52.1573 261.421 52.022 261.043 52.022 260.558V251.78ZM57.8759 262.14C57.5305 262.14 57.2085 262.084 56.9099 261.972C56.6112 261.851 56.3499 261.687 56.1259 261.482C55.9112 261.277 55.7385 261.039 55.6079 260.768C55.4865 260.488 55.4259 260.185 55.4259 259.858C55.4259 259.522 55.5005 259.219 55.6499 258.948C55.7992 258.668 56.0092 258.43 56.2799 258.234C56.5599 258.038 56.8865 257.884 57.2599 257.772C57.6425 257.66 58.0579 257.604 58.5059 257.604C58.8605 257.604 59.2199 257.637 59.5839 257.702C59.9479 257.767 60.2699 257.856 60.5499 257.968V257.38C60.5499 256.783 60.3819 256.316 60.0459 255.98C59.7099 255.635 59.2339 255.462 58.6179 255.462C57.8805 255.462 57.1059 255.747 56.2939 256.316L55.8879 255.518C56.8305 254.883 57.7779 254.566 58.7299 254.566C59.6912 254.566 60.4379 254.823 60.9699 255.336C61.5112 255.849 61.7819 256.573 61.7819 257.506V260.488C61.7819 260.777 61.9125 260.927 62.1739 260.936V262C62.0432 262.019 61.9359 262.033 61.8519 262.042C61.7679 262.051 61.6792 262.056 61.5859 262.056C61.3432 262.056 61.1472 261.986 60.9979 261.846C60.8579 261.697 60.7739 261.519 60.7459 261.314L60.7179 260.796C60.3912 261.235 59.9759 261.571 59.4719 261.804C58.9772 262.028 58.4452 262.14 57.8759 262.14ZM58.1979 261.216C58.6365 261.216 59.0425 261.137 59.4159 260.978C59.7985 260.81 60.0879 260.591 60.2839 260.32C60.4612 260.143 60.5499 259.961 60.5499 259.774V258.696C59.9525 258.463 59.3319 258.346 58.6879 258.346C58.0719 258.346 57.5679 258.477 57.1759 258.738C56.7932 258.999 56.6019 259.34 56.6019 259.76C56.6019 259.965 56.6392 260.157 56.7139 260.334C56.7979 260.511 56.9099 260.665 57.0499 260.796C57.1992 260.927 57.3719 261.029 57.5679 261.104C57.7639 261.179 57.9739 261.216 58.1979 261.216ZM67.5038 262.14C66.9345 262.14 66.4165 262 65.9498 261.72C65.4831 261.44 65.1145 261.076 64.8438 260.628V262H63.7518V251.78H64.9838V256.148C65.2918 255.672 65.6698 255.289 66.1178 255C66.5658 254.711 67.0885 254.566 67.6858 254.566C68.1898 254.566 68.6425 254.673 69.0438 254.888C69.4451 255.103 69.7858 255.387 70.0658 255.742C70.3551 256.087 70.5745 256.493 70.7238 256.96C70.8825 257.417 70.9618 257.889 70.9618 258.374C70.9618 258.887 70.8731 259.373 70.6958 259.83C70.5185 260.287 70.2758 260.689 69.9678 261.034C69.6598 261.37 69.2911 261.641 68.8618 261.846C68.4418 262.042 67.9891 262.14 67.5038 262.14ZM67.1958 261.076C67.5598 261.076 67.8958 261.001 68.2038 260.852C68.5118 260.703 68.7778 260.502 69.0018 260.25C69.2258 259.998 69.3985 259.713 69.5198 259.396C69.6411 259.069 69.7018 258.729 69.7018 258.374C69.7018 258.019 69.6411 257.679 69.5198 257.352C69.4078 257.016 69.2445 256.722 69.0298 256.47C68.8245 256.218 68.5725 256.017 68.2738 255.868C67.9845 255.709 67.6625 255.63 67.3078 255.63C67.0465 255.63 66.7991 255.677 66.5658 255.77C66.3325 255.863 66.1131 255.989 65.9078 256.148C65.7118 256.297 65.5345 256.475 65.3758 256.68C65.2265 256.885 65.0958 257.105 64.9838 257.338V259.452C65.0305 259.685 65.1285 259.9 65.2778 260.096C65.4365 260.292 65.6185 260.465 65.8238 260.614C66.0385 260.754 66.2625 260.866 66.4958 260.95C66.7385 261.034 66.9718 261.076 67.1958 261.076ZM75.6665 262.14C75.1158 262.14 74.6118 262.037 74.1545 261.832C73.7065 261.627 73.3191 261.351 72.9925 261.006C72.6751 260.661 72.4278 260.259 72.2505 259.802C72.0731 259.345 71.9845 258.864 71.9845 258.36C71.9845 257.847 72.0731 257.361 72.2505 256.904C72.4371 256.447 72.6891 256.045 73.0065 255.7C73.3331 255.355 73.7205 255.079 74.1685 254.874C74.6258 254.669 75.1251 254.566 75.6665 254.566C76.2078 254.566 76.7071 254.669 77.1645 254.874C77.6218 255.079 78.0091 255.355 78.3265 255.7C78.6531 256.045 78.9051 256.447 79.0825 256.904C79.2691 257.361 79.3625 257.847 79.3625 258.36C79.3625 258.864 79.2738 259.345 79.0965 259.802C78.9191 260.259 78.6671 260.661 78.3405 261.006C78.0138 261.351 77.6218 261.627 77.1645 261.832C76.7165 262.037 76.2171 262.14 75.6665 262.14ZM73.2445 258.374C73.2445 258.757 73.3051 259.111 73.4265 259.438C73.5571 259.765 73.7298 260.049 73.9445 260.292C74.1685 260.535 74.4251 260.726 74.7145 260.866C75.0131 261.006 75.3305 261.076 75.6665 261.076C76.0025 261.076 76.3151 261.006 76.6045 260.866C76.9031 260.726 77.1645 260.535 77.3885 260.292C77.6125 260.04 77.7851 259.751 77.9065 259.424C78.0371 259.088 78.1025 258.729 78.1025 258.346C78.1025 257.973 78.0371 257.623 77.9065 257.296C77.7851 256.96 77.6125 256.671 77.3885 256.428C77.1645 256.176 76.9031 255.98 76.6045 255.84C76.3151 255.7 76.0025 255.63 75.6665 255.63C75.3305 255.63 75.0131 255.705 74.7145 255.854C74.4251 255.994 74.1685 256.19 73.9445 256.442C73.7298 256.685 73.5571 256.974 73.4265 257.31C73.3051 257.637 73.2445 257.991 73.2445 258.374ZM84.7193 255.77C84.1033 255.789 83.5573 255.947 83.0813 256.246C82.6147 256.545 82.2833 256.96 82.0873 257.492V262H80.8553V254.692H82.0033V256.386C82.2553 255.882 82.5867 255.476 82.9973 255.168C83.408 254.851 83.8467 254.673 84.3133 254.636C84.4067 254.636 84.486 254.636 84.5513 254.636C84.6167 254.636 84.6727 254.641 84.7193 254.65V255.77ZM85.9413 262V254.692H87.1733V262H85.9413ZM85.9413 253.32V251.78H87.1733V253.32H85.9413ZM91.7298 262.14C91.1418 262.14 90.5632 262.051 89.9938 261.874C89.4245 261.687 88.9345 261.421 88.5238 261.076L89.0558 260.25C89.4852 260.577 89.9145 260.824 90.3438 260.992C90.7732 261.151 91.2258 261.23 91.7018 261.23C92.2338 261.23 92.6538 261.127 92.9618 260.922C93.2792 260.707 93.4378 260.409 93.4378 260.026C93.4378 259.849 93.3958 259.699 93.3118 259.578C93.2278 259.447 93.1018 259.335 92.9338 259.242C92.7658 259.149 92.5512 259.065 92.2898 258.99C92.0285 258.915 91.7252 258.836 91.3798 258.752C90.9412 258.64 90.5632 258.533 90.2458 258.43C89.9285 258.327 89.6672 258.206 89.4618 258.066C89.2565 257.926 89.1072 257.758 89.0138 257.562C88.9205 257.366 88.8738 257.123 88.8738 256.834C88.8738 256.47 88.9438 256.148 89.0838 255.868C89.2332 255.579 89.4338 255.341 89.6858 255.154C89.9378 254.958 90.2318 254.813 90.5678 254.72C90.9132 254.617 91.2818 254.566 91.6738 254.566C92.2245 254.566 92.7378 254.655 93.2138 254.832C93.6898 255.009 94.0912 255.243 94.4178 255.532L93.8578 256.274C93.5498 256.003 93.2045 255.803 92.8218 255.672C92.4392 255.532 92.0472 255.462 91.6458 255.462C91.1978 255.462 90.8152 255.56 90.4978 255.756C90.1898 255.943 90.0358 256.246 90.0358 256.666C90.0358 256.834 90.0638 256.974 90.1198 257.086C90.1852 257.198 90.2878 257.296 90.4278 257.38C90.5678 257.464 90.7452 257.539 90.9598 257.604C91.1838 257.669 91.4498 257.739 91.7578 257.814C92.2432 257.926 92.6632 258.043 93.0178 258.164C93.3818 258.276 93.6805 258.411 93.9138 258.57C94.1565 258.729 94.3338 258.915 94.4458 259.13C94.5672 259.345 94.6278 259.606 94.6278 259.914C94.6278 260.595 94.3665 261.137 93.8438 261.538C93.3212 261.939 92.6165 262.14 91.7298 262.14ZM105.969 262H104.737V257.912C104.737 257.128 104.615 256.559 104.373 256.204C104.139 255.849 103.78 255.672 103.295 255.672C103.043 255.672 102.791 255.723 102.539 255.826C102.287 255.919 102.049 256.05 101.825 256.218C101.601 256.386 101.405 256.587 101.237 256.82C101.069 257.053 100.943 257.31 100.859 257.59V262H99.6268V254.692H100.747V256.26C101.036 255.747 101.451 255.336 101.993 255.028C102.543 254.72 103.141 254.566 103.785 254.566C104.205 254.566 104.555 254.645 104.835 254.804C105.115 254.953 105.339 255.168 105.507 255.448C105.675 255.719 105.791 256.041 105.857 256.414C105.931 256.787 105.969 257.193 105.969 257.632V262ZM110.139 262.14C109.373 262.14 108.795 261.883 108.403 261.37C108.011 260.857 107.815 260.091 107.815 259.074V254.692H109.047V258.836C109.047 260.329 109.565 261.076 110.601 261.076C111.105 261.076 111.576 260.917 112.015 260.6C112.463 260.273 112.794 259.83 113.009 259.27V254.692H114.241V260.488C114.241 260.777 114.371 260.927 114.633 260.936V262C114.493 262.019 114.381 262.028 114.297 262.028C114.222 262.037 114.147 262.042 114.073 262.042C113.83 262.042 113.625 261.972 113.457 261.832C113.298 261.683 113.214 261.501 113.205 261.286L113.177 260.432C112.85 260.983 112.421 261.407 111.889 261.706C111.357 261.995 110.773 262.14 110.139 262.14ZM116.321 251.78H117.553V260.11C117.553 260.381 117.623 260.595 117.763 260.754C117.912 260.903 118.117 260.978 118.379 260.978C118.481 260.978 118.603 260.964 118.743 260.936C118.883 260.899 119.013 260.857 119.135 260.81L119.331 261.804C119.125 261.888 118.883 261.958 118.603 262.014C118.323 262.07 118.075 262.098 117.861 262.098C117.385 262.098 117.007 261.963 116.727 261.692C116.456 261.421 116.321 261.043 116.321 260.558V251.78ZM120.327 251.78H121.559V260.11C121.559 260.381 121.629 260.595 121.769 260.754C121.918 260.903 122.123 260.978 122.385 260.978C122.487 260.978 122.609 260.964 122.749 260.936C122.889 260.899 123.019 260.857 123.141 260.81L123.337 261.804C123.131 261.888 122.889 261.958 122.609 262.014C122.329 262.07 122.081 262.098 121.867 262.098C121.391 262.098 121.013 261.963 120.733 261.692C120.462 261.421 120.327 261.043 120.327 260.558V251.78ZM126.181 262.14C125.835 262.14 125.513 262.084 125.215 261.972C124.916 261.851 124.655 261.687 124.431 261.482C124.216 261.277 124.043 261.039 123.913 260.768C123.791 260.488 123.731 260.185 123.731 259.858C123.731 259.522 123.805 259.219 123.955 258.948C124.104 258.668 124.314 258.43 124.585 258.234C124.865 258.038 125.191 257.884 125.565 257.772C125.947 257.66 126.363 257.604 126.811 257.604C127.165 257.604 127.525 257.637 127.889 257.702C128.253 257.767 128.575 257.856 128.855 257.968V257.38C128.855 256.783 128.687 256.316 128.351 255.98C128.015 255.635 127.539 255.462 126.923 255.462C126.185 255.462 125.411 255.747 124.599 256.316L124.193 255.518C125.135 254.883 126.083 254.566 127.035 254.566C127.996 254.566 128.743 254.823 129.275 255.336C129.816 255.849 130.087 256.573 130.087 257.506V260.488C130.087 260.777 130.217 260.927 130.479 260.936V262C130.348 262.019 130.241 262.033 130.157 262.042C130.073 262.051 129.984 262.056 129.891 262.056C129.648 262.056 129.452 261.986 129.303 261.846C129.163 261.697 129.079 261.519 129.051 261.314L129.023 260.796C128.696 261.235 128.281 261.571 127.777 261.804C127.282 262.028 126.75 262.14 126.181 262.14ZM126.503 261.216C126.941 261.216 127.347 261.137 127.721 260.978C128.103 260.81 128.393 260.591 128.589 260.32C128.766 260.143 128.855 259.961 128.855 259.774V258.696C128.257 258.463 127.637 258.346 126.993 258.346C126.377 258.346 125.873 258.477 125.481 258.738C125.098 258.999 124.907 259.34 124.907 259.76C124.907 259.965 124.944 260.157 125.019 260.334C125.103 260.511 125.215 260.665 125.355 260.796C125.504 260.927 125.677 261.029 125.873 261.104C126.069 261.179 126.279 261.216 126.503 261.216Z" fill="white"/>
<path d="M63 91.968C62.84 91.792 62.608 91.608 62.304 91.416C62 91.208 61.64 91.016 61.224 90.84C60.824 90.664 60.376 90.52 59.88 90.408C59.4 90.296 58.904 90.24 58.392 90.24C57.256 90.24 56.416 90.448 55.872 90.864C55.344 91.28 55.08 91.856 55.08 92.592C55.08 93.008 55.16 93.352 55.32 93.624C55.496 93.88 55.76 94.112 56.112 94.32C56.464 94.512 56.904 94.688 57.432 94.848C57.96 94.992 58.576 95.152 59.28 95.328C60.144 95.536 60.92 95.768 61.608 96.024C62.312 96.28 62.904 96.592 63.384 96.96C63.864 97.328 64.232 97.784 64.488 98.328C64.76 98.856 64.896 99.504 64.896 100.272C64.896 101.136 64.728 101.88 64.392 102.504C64.072 103.128 63.624 103.64 63.048 104.04C62.488 104.424 61.832 104.712 61.08 104.904C60.328 105.08 59.52 105.168 58.656 105.168C57.36 105.168 56.104 104.976 54.888 104.592C53.688 104.192 52.6 103.616 51.624 102.864L52.848 100.56C53.056 100.768 53.352 101 53.736 101.256C54.136 101.512 54.592 101.752 55.104 101.976C55.632 102.184 56.2 102.368 56.808 102.528C57.416 102.672 58.048 102.744 58.704 102.744C59.76 102.744 60.576 102.56 61.152 102.192C61.728 101.824 62.016 101.28 62.016 100.56C62.016 100.128 61.904 99.768 61.68 99.48C61.472 99.192 61.168 98.944 60.768 98.736C60.368 98.512 59.88 98.312 59.304 98.136C58.728 97.96 58.072 97.776 57.336 97.584C56.488 97.36 55.744 97.128 55.104 96.888C54.48 96.632 53.96 96.328 53.544 95.976C53.128 95.624 52.808 95.216 52.584 94.752C52.376 94.272 52.272 93.696 52.272 93.024C52.272 92.192 52.432 91.456 52.752 90.816C53.072 90.16 53.504 89.616 54.048 89.184C54.608 88.736 55.264 88.4 56.016 88.176C56.768 87.952 57.584 87.84 58.464 87.84C59.616 87.84 60.68 88.024 61.656 88.392C62.632 88.76 63.488 89.216 64.224 89.76L63 91.968ZM89.1199 102.624V105H77.4319V87.96H88.9039V90.336H80.1199V95.184H87.7279V97.416H80.1199V102.624H89.1199ZM106.749 87.96H109.101L115.821 105H112.989L111.189 100.368H104.613L102.837 105H99.9808L106.749 87.96ZM110.661 98.376L107.925 91.056L105.093 98.376H110.661ZM137.59 91.968C137.43 91.792 137.198 91.608 136.894 91.416C136.59 91.208 136.23 91.016 135.814 90.84C135.414 90.664 134.966 90.52 134.47 90.408C133.99 90.296 133.494 90.24 132.982 90.24C131.846 90.24 131.006 90.448 130.462 90.864C129.934 91.28 129.67 91.856 129.67 92.592C129.67 93.008 129.75 93.352 129.91 93.624C130.086 93.88 130.35 94.112 130.702 94.32C131.054 94.512 131.494 94.688 132.022 94.848C132.55 94.992 133.166 95.152 133.87 95.328C134.734 95.536 135.51 95.768 136.198 96.024C136.902 96.28 137.494 96.592 137.974 96.96C138.454 97.328 138.822 97.784 139.078 98.328C139.35 98.856 139.486 99.504 139.486 100.272C139.486 101.136 139.318 101.88 138.982 102.504C138.662 103.128 138.214 103.64 137.638 104.04C137.078 104.424 136.422 104.712 135.67 104.904C134.918 105.08 134.11 105.168 133.246 105.168C131.95 105.168 130.694 104.976 129.478 104.592C128.278 104.192 127.19 103.616 126.214 102.864L127.438 100.56C127.646 100.768 127.942 101 128.326 101.256C128.726 101.512 129.182 101.752 129.694 101.976C130.222 102.184 130.79 102.368 131.398 102.528C132.006 102.672 132.638 102.744 133.294 102.744C134.35 102.744 135.166 102.56 135.742 102.192C136.318 101.824 136.606 101.28 136.606 100.56C136.606 100.128 136.494 99.768 136.27 99.48C136.062 99.192 135.758 98.944 135.358 98.736C134.958 98.512 134.47 98.312 133.894 98.136C133.318 97.96 132.662 97.776 131.926 97.584C131.078 97.36 130.334 97.128 129.694 96.888C129.07 96.632 128.55 96.328 128.134 95.976C127.718 95.624 127.398 95.216 127.174 94.752C126.966 94.272 126.862 93.696 126.862 93.024C126.862 92.192 127.022 91.456 127.342 90.816C127.662 90.16 128.094 89.616 128.638 89.184C129.198 88.736 129.854 88.4 130.606 88.176C131.358 87.952 132.174 87.84 133.054 87.84C134.206 87.84 135.27 88.024 136.246 88.392C137.222 88.76 138.078 89.216 138.814 89.76L137.59 91.968ZM159.102 105.12C157.886 105.12 156.774 104.88 155.766 104.4C154.774 103.904 153.918 103.256 153.198 102.456C152.478 101.64 151.918 100.712 151.518 99.672C151.134 98.632 150.942 97.568 150.942 96.48C150.942 95.344 151.15 94.256 151.566 93.216C151.982 92.176 152.55 91.256 153.27 90.456C154.006 89.656 154.87 89.024 155.862 88.56C156.87 88.08 157.966 87.84 159.15 87.84C160.366 87.84 161.47 88.096 162.462 88.608C163.47 89.104 164.326 89.76 165.03 90.576C165.75 91.392 166.302 92.32 166.686 93.36C167.086 94.384 167.286 95.432 167.286 96.504C167.286 97.64 167.078 98.728 166.662 99.768C166.262 100.808 165.694 101.728 164.958 102.528C164.222 103.312 163.35 103.944 162.342 104.424C161.35 104.888 160.27 105.12 159.102 105.12ZM153.678 96.48C153.678 97.28 153.806 98.056 154.062 98.808C154.318 99.56 154.678 100.224 155.142 100.8C155.622 101.376 156.198 101.84 156.87 102.192C157.542 102.528 158.294 102.696 159.126 102.696C159.99 102.696 160.75 102.52 161.406 102.168C162.078 101.8 162.646 101.32 163.11 100.728C163.574 100.136 163.926 99.472 164.166 98.736C164.406 98 164.526 97.248 164.526 96.48C164.526 95.664 164.398 94.888 164.142 94.152C163.886 93.4 163.518 92.744 163.038 92.184C162.574 91.608 162.006 91.152 161.334 90.816C160.678 90.464 159.942 90.288 159.126 90.288C158.262 90.288 157.494 90.472 156.822 90.84C156.15 91.192 155.582 91.656 155.118 92.232C154.654 92.808 154.294 93.472 154.038 94.224C153.798 94.96 153.678 95.712 153.678 96.48ZM182.597 93V105H179.909V87.96H182.021L191.765 100.248V87.984H194.477V105H192.245L182.597 93ZM80.64 134.88C80.52 134.72 80.1 134.42 79.38 133.98C78.66 133.54 77.76 133.08 76.68 132.6C75.6 132.12 74.42 131.7 73.14 131.34C71.86 130.98 70.58 130.8 69.3 130.8C65.78 130.8 64.02 131.98 64.02 134.34C64.02 135.06 64.2 135.66 64.56 136.14C64.96 136.62 65.52 137.06 66.24 137.46C67 137.82 67.94 138.16 69.06 138.48C70.18 138.8 71.48 139.16 72.96 139.56C75 140.12 76.84 140.74 78.48 141.42C80.12 142.06 81.5 142.88 82.62 143.88C83.78 144.84 84.66 146.02 85.26 147.42C85.9 148.82 86.22 150.5 86.22 152.46C86.22 154.86 85.76 156.9 84.84 158.58C83.96 160.22 82.78 161.56 81.3 162.6C79.82 163.6 78.12 164.34 76.2 164.82C74.28 165.26 72.3 165.48 70.26 165.48C68.7 165.48 67.1 165.36 65.46 165.12C63.82 164.88 62.22 164.54 60.66 164.1C59.1 163.62 57.58 163.06 56.1 162.42C54.66 161.78 53.32 161.04 52.08 160.2L56.4 151.62C56.56 151.82 57.08 152.2 57.96 152.76C58.84 153.32 59.92 153.88 61.2 154.44C62.52 155 63.98 155.5 65.58 155.94C67.18 156.38 68.8 156.6 70.44 156.6C73.92 156.6 75.66 155.54 75.66 153.42C75.66 152.62 75.4 151.96 74.88 151.44C74.36 150.92 73.64 150.46 72.72 150.06C71.8 149.62 70.7 149.22 69.42 148.86C68.18 148.5 66.82 148.1 65.34 147.66C63.38 147.06 61.68 146.42 60.24 145.74C58.8 145.02 57.6 144.2 56.64 143.28C55.72 142.36 55.02 141.3 54.54 140.1C54.1 138.9 53.88 137.5 53.88 135.9C53.88 133.66 54.3 131.68 55.14 129.96C55.98 128.24 57.12 126.8 58.56 125.64C60 124.44 61.66 123.54 63.54 122.94C65.46 122.34 67.48 122.04 69.6 122.04C71.08 122.04 72.54 122.18 73.98 122.46C75.42 122.74 76.8 123.1 78.12 123.54C79.44 123.98 80.66 124.48 81.78 125.04C82.94 125.6 84 126.16 84.96 126.72L80.64 134.88ZM102.871 122.4H111.751L127.291 165H117.211L113.911 155.46H100.651L97.4109 165H87.3309L102.871 122.4ZM112.291 148.68L107.311 133.62L102.211 148.68H112.291ZM131.486 165V122.4H141.326V156.36H161.966V165H131.486ZM196.524 156.36V165H166.584V122.4H195.984V131.04H176.424V139.32H193.224V147.3H176.424V156.36H196.524Z" fill="white"/>
<rect x="51" y="307.292" width="2" height="25" transform="rotate(-90 51 307.292)" fill="white"/>
<path d="M98 303.604C97.8933 303.487 97.7387 303.364 97.536 303.236C97.3333 303.097 97.0933 302.969 96.816 302.852C96.5493 302.735 96.2507 302.639 95.92 302.564C95.6 302.489 95.2693 302.452 94.928 302.452C94.1707 302.452 93.6107 302.591 93.248 302.868C92.896 303.145 92.72 303.529 92.72 304.02C92.72 304.297 92.7733 304.527 92.88 304.708C92.9973 304.879 93.1733 305.033 93.408 305.172C93.6427 305.3 93.936 305.417 94.288 305.524C94.64 305.62 95.0507 305.727 95.52 305.844C96.096 305.983 96.6133 306.137 97.072 306.308C97.5413 306.479 97.936 306.687 98.256 306.932C98.576 307.177 98.8213 307.481 98.992 307.844C99.1733 308.196 99.264 308.628 99.264 309.14C99.264 309.716 99.152 310.212 98.928 310.628C98.7147 311.044 98.416 311.385 98.032 311.652C97.6587 311.908 97.2213 312.1 96.72 312.228C96.2187 312.345 95.68 312.404 95.104 312.404C94.24 312.404 93.4027 312.276 92.592 312.02C91.792 311.753 91.0667 311.369 90.416 310.868L91.232 309.332C91.3707 309.471 91.568 309.625 91.824 309.796C92.0907 309.967 92.3947 310.127 92.736 310.276C93.088 310.415 93.4667 310.537 93.872 310.644C94.2773 310.74 94.6987 310.788 95.136 310.788C95.84 310.788 96.384 310.665 96.768 310.42C97.152 310.175 97.344 309.812 97.344 309.332C97.344 309.044 97.2693 308.804 97.12 308.612C96.9813 308.42 96.7787 308.255 96.512 308.116C96.2453 307.967 95.92 307.833 95.536 307.716C95.152 307.599 94.7147 307.476 94.224 307.348C93.6587 307.199 93.1627 307.044 92.736 306.884C92.32 306.713 91.9733 306.511 91.696 306.276C91.4187 306.041 91.2053 305.769 91.056 305.46C90.9173 305.14 90.848 304.756 90.848 304.308C90.848 303.753 90.9547 303.263 91.168 302.836C91.3813 302.399 91.6693 302.036 92.032 301.748C92.4053 301.449 92.8427 301.225 93.344 301.076C93.8453 300.927 94.3893 300.852 94.976 300.852C95.744 300.852 96.4533 300.975 97.104 301.22C97.7547 301.465 98.3253 301.769 98.816 302.132L98 303.604ZM108.341 312.292H106.581V307.604C106.581 306.836 106.443 306.271 106.165 305.908C105.899 305.535 105.509 305.348 104.997 305.348C104.752 305.348 104.507 305.396 104.261 305.492C104.016 305.588 103.781 305.727 103.557 305.908C103.344 306.079 103.152 306.287 102.981 306.532C102.811 306.767 102.683 307.028 102.597 307.316V312.292H100.837V300.612H102.597V305.604C102.917 305.028 103.349 304.58 103.893 304.26C104.448 303.94 105.051 303.78 105.701 303.78C106.224 303.78 106.651 303.876 106.981 304.068C107.323 304.249 107.595 304.495 107.797 304.804C108 305.113 108.139 305.476 108.213 305.892C108.299 306.297 108.341 306.729 108.341 307.188V312.292ZM114.144 312.452C113.483 312.452 112.885 312.335 112.352 312.1C111.829 311.865 111.381 311.551 111.008 311.156C110.635 310.761 110.347 310.303 110.144 309.78C109.941 309.247 109.84 308.692 109.84 308.116C109.84 307.54 109.941 306.991 110.144 306.468C110.347 305.935 110.635 305.471 111.008 305.076C111.392 304.681 111.845 304.367 112.368 304.132C112.901 303.897 113.493 303.78 114.144 303.78C114.795 303.78 115.381 303.897 115.904 304.132C116.437 304.367 116.891 304.681 117.264 305.076C117.648 305.471 117.941 305.935 118.144 306.468C118.347 306.991 118.448 307.54 118.448 308.116C118.448 308.692 118.347 309.247 118.144 309.78C117.941 310.303 117.648 310.761 117.264 311.156C116.891 311.551 116.437 311.865 115.904 312.1C115.381 312.335 114.795 312.452 114.144 312.452ZM111.648 308.132C111.648 308.537 111.712 308.911 111.84 309.252C111.968 309.593 112.144 309.892 112.368 310.148C112.592 310.393 112.853 310.591 113.152 310.74C113.461 310.879 113.792 310.948 114.144 310.948C114.496 310.948 114.821 310.879 115.12 310.74C115.429 310.591 115.696 310.388 115.92 310.132C116.144 309.876 116.32 309.577 116.448 309.236C116.576 308.895 116.64 308.521 116.64 308.116C116.64 307.721 116.576 307.353 116.448 307.012C116.32 306.66 116.144 306.356 115.92 306.1C115.696 305.844 115.429 305.647 115.12 305.508C114.821 305.359 114.496 305.284 114.144 305.284C113.803 305.284 113.477 305.359 113.168 305.508C112.869 305.657 112.608 305.86 112.384 306.116C112.16 306.372 111.979 306.676 111.84 307.028C111.712 307.369 111.648 307.737 111.648 308.132ZM124.761 312.452C124.089 312.452 123.497 312.292 122.985 311.972C122.473 311.652 122.068 311.236 121.769 310.724V315.7H120.009V303.924H121.561V305.428C121.881 304.927 122.292 304.527 122.793 304.228C123.305 303.929 123.881 303.78 124.521 303.78C125.097 303.78 125.625 303.897 126.105 304.132C126.585 304.367 127.001 304.681 127.353 305.076C127.705 305.471 127.977 305.929 128.169 306.452C128.372 306.975 128.473 307.524 128.473 308.1C128.473 308.708 128.382 309.279 128.201 309.812C128.02 310.335 127.764 310.793 127.433 311.188C127.102 311.572 126.708 311.881 126.249 312.116C125.801 312.34 125.305 312.452 124.761 312.452ZM124.185 310.948C124.558 310.948 124.894 310.868 125.193 310.708C125.502 310.548 125.764 310.335 125.977 310.068C126.201 309.801 126.372 309.497 126.489 309.156C126.606 308.815 126.665 308.463 126.665 308.1C126.665 307.716 126.596 307.353 126.457 307.012C126.329 306.671 126.148 306.372 125.913 306.116C125.689 305.86 125.417 305.657 125.097 305.508C124.777 305.359 124.43 305.284 124.057 305.284C123.833 305.284 123.598 305.327 123.353 305.412C123.108 305.497 122.878 305.615 122.665 305.764C122.452 305.913 122.265 306.089 122.105 306.292C121.945 306.484 121.833 306.697 121.769 306.932V309.124C121.876 309.38 122.014 309.62 122.185 309.844C122.356 310.068 122.542 310.26 122.745 310.42C122.958 310.58 123.188 310.708 123.433 310.804C123.678 310.9 123.929 310.948 124.185 310.948ZM136.025 304.292V312.292H134.233V300.932H135.641L142.137 309.124V300.948H143.945V312.292H142.457L136.025 304.292ZM149.925 312.452C149.264 312.452 148.667 312.335 148.133 312.1C147.611 311.865 147.163 311.551 146.789 311.156C146.416 310.761 146.128 310.303 145.925 309.78C145.723 309.247 145.621 308.692 145.621 308.116C145.621 307.54 145.723 306.991 145.925 306.468C146.128 305.935 146.416 305.471 146.789 305.076C147.173 304.681 147.627 304.367 148.149 304.132C148.683 303.897 149.275 303.78 149.925 303.78C150.576 303.78 151.163 303.897 151.685 304.132C152.219 304.367 152.672 304.681 153.045 305.076C153.429 305.471 153.723 305.935 153.925 306.468C154.128 306.991 154.229 307.54 154.229 308.116C154.229 308.692 154.128 309.247 153.925 309.78C153.723 310.303 153.429 310.761 153.045 311.156C152.672 311.551 152.219 311.865 151.685 312.1C151.163 312.335 150.576 312.452 149.925 312.452ZM147.429 308.132C147.429 308.537 147.493 308.911 147.621 309.252C147.749 309.593 147.925 309.892 148.149 310.148C148.373 310.393 148.635 310.591 148.933 310.74C149.243 310.879 149.573 310.948 149.925 310.948C150.277 310.948 150.603 310.879 150.901 310.74C151.211 310.591 151.477 310.388 151.701 310.132C151.925 309.876 152.101 309.577 152.229 309.236C152.357 308.895 152.421 308.521 152.421 308.116C152.421 307.721 152.357 307.353 152.229 307.012C152.101 306.66 151.925 306.356 151.701 306.1C151.477 305.844 151.211 305.647 150.901 305.508C150.603 305.359 150.277 305.284 149.925 305.284C149.584 305.284 149.259 305.359 148.949 305.508C148.651 305.657 148.389 305.86 148.165 306.116C147.941 306.372 147.76 306.676 147.621 307.028C147.493 307.369 147.429 307.737 147.429 308.132ZM165.926 303.924H167.606L164.086 312.292H162.63L161.078 308.404L159.526 312.292H158.07L154.534 303.924H156.214L158.918 310.596L160.134 307.492L158.678 303.94H160.118L161.078 306.564L162.022 303.94H163.462L162.022 307.492L163.238 310.596L165.926 303.924Z" fill="white"/>
</g>
<defs>
<clipPath id="clip0_586_13351">
<rect width="242" height="400" fill="white"/>
</clipPath>
</defs>
</svg>


