<svg width="21" height="20" viewBox="0 0 21 20" fill="none" xmlns="http://www.w3.org/2000/svg">
<path d="M5.91919 1.66667L3.41919 5.00001V16.6667C3.41919 17.1087 3.59478 17.5326 3.90734 17.8452C4.21991 18.1577 4.64383 18.3333 5.08586 18.3333H16.7525C17.1945 18.3333 17.6185 18.1577 17.931 17.8452C18.2436 17.5326 18.4192 17.1087 18.4192 16.6667V5.00001L15.9192 1.66667H5.91919Z" stroke="#444444" stroke-width="1.5" stroke-linecap="round" stroke-linejoin="round"/>
<path d="M3.41919 5H18.4192" stroke="#444444" stroke-width="1.5" stroke-linecap="round" stroke-linejoin="round"/>
<path d="M14.2526 8.33333C14.2526 9.21738 13.9014 10.0652 13.2763 10.6904C12.6512 11.3155 11.8033 11.6667 10.9193 11.6667C10.0352 11.6667 9.18737 11.3155 8.56225 10.6904C7.93713 10.0652 7.58594 9.21738 7.58594 8.33333" stroke="#444444" stroke-width="1.5" stroke-linecap="round" stroke-linejoin="round"/>
</svg>
