<svg width="19" height="18" viewBox="0 0 19 18" fill="none" xmlns="http://www.w3.org/2000/svg">
<path fill-rule="evenodd" clip-rule="evenodd" d="M11.5429 1.05963C12.1901 0.791445 12.8838 0.653412 13.5844 0.653412C14.285 0.653412 14.9787 0.791446 15.626 1.05963C16.2732 1.32781 16.8613 1.72088 17.3565 2.21639C17.8519 2.71162 18.2449 3.29959 18.513 3.94671C18.7812 4.59394 18.9193 5.28767 18.9193 5.98827C18.9193 6.68886 18.7812 7.38259 18.513 8.02982C18.2449 8.677 17.8519 9.26501 17.3564 9.76026C17.3564 9.76031 17.3563 9.76035 17.3563 9.76039L9.98974 17.1269C9.84909 17.2676 9.65832 17.3466 9.45941 17.3466C9.2605 17.3466 9.06973 17.2676 8.92908 17.1269L1.56241 9.76026C0.562016 8.75987 0 7.40304 0 5.98827C0 4.57349 0.562017 3.21667 1.56241 2.21627C2.56281 1.21587 3.91964 0.653858 5.33441 0.653858C6.74918 0.653857 8.10601 1.21587 9.10641 2.21627L9.45941 2.56927L9.81229 2.21639C10.3076 1.72088 10.8956 1.32781 11.5429 1.05963ZM13.5844 2.15341C13.0809 2.15341 12.5822 2.25262 12.117 2.44538C11.6518 2.63813 11.2292 2.92066 10.8732 3.27681L10.8731 3.27693L9.98974 4.16026C9.84909 4.30092 9.65832 4.37993 9.45941 4.37993C9.2605 4.37993 9.06973 4.30092 8.92908 4.16026L8.04575 3.27693C7.32665 2.55784 6.35136 2.15386 5.33441 2.15386C4.31746 2.15386 3.34216 2.55784 2.62307 3.27693C1.90398 3.99602 1.5 4.97132 1.5 5.98827C1.5 7.00522 1.90398 7.98051 2.62307 8.6996L9.45941 15.5359L16.2957 8.6996L16.2959 8.69948C16.652 8.3435 16.9345 7.92084 17.1273 7.45564C17.3201 6.99044 17.4193 6.49182 17.4193 5.98827C17.4193 5.48472 17.3201 4.9861 17.1273 4.5209C16.9345 4.0557 16.652 3.63304 16.2959 3.27705L16.2956 3.27681C15.9396 2.92066 15.517 2.63813 15.0518 2.44538C14.5866 2.25262 14.088 2.15341 13.5844 2.15341Z" fill="#444444"/>
</svg>
