<svg width="56" height="40" viewBox="0 0 56 40" fill="none" xmlns="http://www.w3.org/2000/svg">
<rect width="56" height="40" rx="16" fill="#EBEBEB"/>
<path d="M28 20C30.7614 20 33 17.7614 33 15C33 12.2386 30.7614 10 28 10C25.2386 10 23 12.2386 23 15C23 17.7614 25.2386 20 28 20Z" stroke="black" stroke-width="2"/>
<path d="M33 22H33.352C34.0831 22.0002 34.7889 22.2674 35.3369 22.7513C35.8849 23.2352 36.2373 23.9026 36.328 24.628L36.719 27.752C36.7542 28.0334 36.7291 28.3191 36.6454 28.5901C36.5617 28.8611 36.4214 29.1112 36.2336 29.3238C36.0459 29.5364 35.8151 29.7066 35.5566 29.8232C35.298 29.9398 35.0176 30.0001 34.734 30H21.266C20.9824 30.0001 20.702 29.9398 20.4434 29.8232C20.1849 29.7066 19.9541 29.5364 19.7664 29.3238C19.5786 29.1112 19.4383 28.8611 19.3546 28.5901C19.2709 28.3191 19.2458 28.0334 19.281 27.752L19.671 24.628C19.7617 23.9022 20.1144 23.2346 20.6628 22.7506C21.2112 22.2667 21.9176 21.9997 22.649 22H23" stroke="black" stroke-width="2" stroke-linecap="round" stroke-linejoin="round"/>
</svg>
