<svg width="16" height="12" viewBox="0 0 16 12" fill="none" xmlns="http://www.w3.org/2000/svg">
<path d="M14.71 1.21001C14.617 1.11628 14.5064 1.04189 14.3846 0.991122C14.2627 0.940353 14.132 0.914215 14 0.914215C13.868 0.914215 13.7373 0.940353 13.6154 0.991122C13.4936 1.04189 13.383 1.11628 13.29 1.21001L5.84001 8.67001L2.71001 5.53001C2.61349 5.43677 2.49955 5.36346 2.37469 5.31426C2.24984 5.26505 2.11651 5.24092 1.98233 5.24324C1.84815 5.24557 1.71574 5.27429 1.59266 5.32779C1.46959 5.38128 1.35825 5.45849 1.26501 5.55501C1.17177 5.65154 1.09846 5.76548 1.04925 5.89033C1.00005 6.01519 0.97592 6.14851 0.978241 6.28269C0.980563 6.41687 1.00929 6.54928 1.06278 6.67236C1.11628 6.79544 1.19349 6.90677 1.29001 7.00001L5.13001 10.84C5.22297 10.9337 5.33357 11.0081 5.45543 11.0589C5.57729 11.1097 5.708 11.1358 5.84001 11.1358C5.97202 11.1358 6.10273 11.1097 6.22459 11.0589C6.34645 11.0081 6.45705 10.9337 6.55001 10.84L14.71 2.68001C14.8115 2.58637 14.8925 2.47272 14.9479 2.34622C15.0033 2.21972 15.0319 2.08312 15.0319 1.94501C15.0319 1.80691 15.0033 1.67031 14.9479 1.54381C14.8925 1.41731 14.8115 1.30366 14.71 1.21001Z" fill="black"/>
</svg>
