<svg width="30" height="30" viewBox="0 0 30 30" fill="none" xmlns="http://www.w3.org/2000/svg">
<path fill-rule="evenodd" clip-rule="evenodd" d="M8.95334 0.421374C10.5173 0.349374 11.016 0.333374 15 0.333374C18.984 0.333374 19.4827 0.350707 21.0453 0.421374C22.608 0.492041 23.6747 0.741374 24.608 1.10271C25.5853 1.47204 26.472 2.04937 27.2053 2.79604C27.952 3.52804 28.528 4.41337 28.896 5.39204C29.2587 6.32537 29.5067 7.39204 29.5787 8.95204C29.6507 10.5187 29.6667 11.0174 29.6667 15C29.6667 18.984 29.6493 19.4827 29.5787 21.0467C29.508 22.6067 29.2587 23.6734 28.896 24.6067C28.528 25.5855 27.951 26.4723 27.2053 27.2054C26.472 27.952 25.5853 28.528 24.608 28.896C23.6747 29.2587 22.608 29.5067 21.048 29.5787C19.4827 29.6507 18.984 29.6667 15 29.6667C11.016 29.6667 10.5173 29.6494 8.95334 29.5787C7.39334 29.508 6.32668 29.2587 5.39334 28.896C4.41457 28.528 3.52777 27.951 2.79468 27.2054C2.04852 26.4729 1.4711 25.5866 1.10268 24.608C0.741344 23.6747 0.493343 22.608 0.421343 21.048C0.349343 19.4814 0.333344 18.9827 0.333344 15C0.333344 11.016 0.350677 10.5174 0.421343 8.95471C0.49201 7.39204 0.741344 6.32537 1.10268 5.39204C1.47164 4.41348 2.0495 3.52713 2.79601 2.79471C3.52806 2.04871 4.41397 1.4713 5.39201 1.10271C6.32534 0.741374 7.39201 0.493374 8.95201 0.421374H8.95334ZM20.9267 3.06137C19.38 2.99071 18.916 2.97604 15 2.97604C11.084 2.97604 10.62 2.99071 9.07334 3.06137C7.64268 3.12671 6.86668 3.36537 6.34934 3.56671C5.66534 3.83337 5.17601 4.14937 4.66268 4.66271C4.17607 5.13611 3.80158 5.71242 3.56668 6.34937C3.36534 6.86671 3.12668 7.64271 3.06134 9.07337C2.99068 10.62 2.97601 11.084 2.97601 15C2.97601 18.916 2.99068 19.38 3.06134 20.9267C3.12668 22.3574 3.36534 23.1334 3.56668 23.6507C3.80134 24.2867 4.17601 24.864 4.66268 25.3374C5.13601 25.824 5.71334 26.1987 6.34934 26.4334C6.86668 26.6347 7.64268 26.8734 9.07334 26.9387C10.62 27.0094 11.0827 27.024 15 27.024C18.9173 27.024 19.38 27.0094 20.9267 26.9387C22.3573 26.8734 23.1333 26.6347 23.6507 26.4334C24.3347 26.1667 24.824 25.8507 25.3373 25.3374C25.824 24.864 26.1987 24.2867 26.4333 23.6507C26.6347 23.1334 26.8733 22.3574 26.9387 20.9267C27.0093 19.38 27.024 18.916 27.024 15C27.024 11.084 27.0093 10.62 26.9387 9.07337C26.8733 7.64271 26.6347 6.86671 26.4333 6.34937C26.1667 5.66537 25.8507 5.17604 25.3373 4.66271C24.8639 4.17614 24.2876 3.80166 23.6507 3.56671C23.1333 3.36537 22.3573 3.12671 20.9267 3.06137ZM13.1267 19.5214C14.1729 19.9569 15.3378 20.0157 16.4226 19.6877C17.5073 19.3597 18.4445 18.6653 19.0742 17.723C19.7038 16.7808 19.9868 15.6492 19.8747 14.5215C19.7627 13.3938 19.2627 12.34 18.46 11.54C17.9483 11.0287 17.3296 10.6371 16.6485 10.3936C15.9673 10.15 15.2406 10.0605 14.5207 10.1315C13.8008 10.2025 13.1055 10.4323 12.4851 10.8042C11.8646 11.1762 11.3343 11.681 10.9324 12.2825C10.5305 12.884 10.2669 13.5671 10.1607 14.2827C10.0545 14.9982 10.1082 15.7284 10.3181 16.4207C10.5279 17.113 10.8887 17.7502 11.3743 18.2863C11.86 18.8225 12.4584 19.2443 13.1267 19.5214ZM9.66934 9.66937C10.3694 8.96934 11.2004 8.41404 12.1151 8.03519C13.0297 7.65633 14.01 7.46134 15 7.46134C15.99 7.46134 16.9703 7.65633 17.8849 8.03519C18.7996 8.41404 19.6306 8.96934 20.3307 9.66937C21.0307 10.3694 21.586 11.2005 21.9649 12.1151C22.3437 13.0297 22.5387 14.01 22.5387 15C22.5387 15.99 22.3437 16.9703 21.9649 17.885C21.586 18.7996 21.0307 19.6307 20.3307 20.3307C18.9169 21.7445 16.9994 22.5387 15 22.5387C13.0006 22.5387 11.0831 21.7445 9.66934 20.3307C8.25556 18.9169 7.46131 16.9994 7.46131 15C7.46131 13.0007 8.25556 11.0832 9.66934 9.66937ZM24.2107 8.58404C24.3842 8.4204 24.523 8.22362 24.6191 8.00534C24.7151 7.78706 24.7664 7.55173 24.7699 7.31328C24.7734 7.07483 24.729 6.8381 24.6393 6.61712C24.5497 6.39614 24.4166 6.19539 24.248 6.02676C24.0793 5.85813 23.8786 5.72505 23.6576 5.6354C23.4366 5.54574 23.1999 5.50134 22.9614 5.50482C22.723 5.50829 22.4877 5.55958 22.2694 5.65564C22.0511 5.75169 21.8543 5.89057 21.6907 6.06404C21.3724 6.40141 21.1982 6.84954 21.2049 7.31328C21.2117 7.77703 21.3989 8.21988 21.7269 8.54783C22.0548 8.87578 22.4977 9.06301 22.9614 9.06977C23.4252 9.07653 23.8733 8.90229 24.2107 8.58404Z" fill="white"/>
</svg>
