<svg width="68" height="74" viewBox="0 0 68 74" fill="none" xmlns="http://www.w3.org/2000/svg">
<path fill-rule="evenodd" clip-rule="evenodd" d="M22.7519 69.0564C16.2588 67.2466 9.46087 66.3336 2.8664 65.4972C1.44606 65.3219 0.127359 66.3003 0.0259057 67.6789C-0.177001 69.0585 0.838127 70.3201 2.15702 70.4955C8.54858 71.3006 15.1425 72.1622 21.3311 73.9045C22.65 74.2824 24.071 73.5045 24.4768 72.1663C24.8826 70.829 24.0708 69.4353 22.7519 69.0564Z" fill="#F5FA93"/>
<path fill-rule="evenodd" clip-rule="evenodd" d="M42.433 43.397C31.9833 32.8049 20.2147 23.5762 9.96791 12.7C9.05483 11.6842 7.43158 11.6298 6.41704 12.578C5.40251 13.5273 5.30145 15.1235 6.31599 16.1393C16.5628 27.0468 28.3314 36.3057 38.7811 46.929C39.7956 47.9206 41.4185 47.9347 42.433 46.9592C43.3461 45.9848 43.4475 44.3886 42.433 43.397Z" fill="#F5FA93"/>
<path fill-rule="evenodd" clip-rule="evenodd" d="M62.0148 2.6561C62.3192 8.71851 62.623 14.7809 62.9273 20.8443C62.9273 22.233 64.1454 23.3052 65.5657 23.2377C66.9861 23.1691 68 21.9871 68 20.5975C67.6956 14.525 67.3919 8.45348 67.0875 2.38199C66.9861 0.993363 65.7684 -0.0717928 64.3481 0.00378581C63.0292 0.0793644 61.9134 1.26847 62.0148 2.6561Z" fill="#F5FA93"/>
</svg>
