<svg width="24" height="25" viewBox="0 0 24 25" fill="none" xmlns="http://www.w3.org/2000/svg">
<path d="M1.996 6.99597C1.996 5.8025 2.47011 4.6579 3.31402 3.81399C4.15794 2.97008 5.30253 2.49597 6.496 2.49597H11.504C12.6672 2.49614 13.7852 2.94674 14.6235 3.75328C15.4617 4.55981 15.955 5.6596 16 6.82197V12.176C15.9653 13.0771 15.6608 13.947 15.1259 14.6731C14.591 15.3991 13.8504 15.9478 13 16.248L13.004 6.99597C13.004 6.59815 12.846 6.21662 12.5647 5.93531C12.2834 5.65401 11.9018 5.49597 11.504 5.49597H6.496C6.09818 5.49597 5.71665 5.65401 5.43534 5.93531C5.15404 6.21662 4.996 6.59815 4.996 6.99597V12.004C4.996 12.658 5.416 13.214 6 13.42V16.476C4.89926 16.3539 3.88219 15.8302 3.14344 15.0051C2.40469 14.18 1.99615 13.1115 1.996 12.004V6.99597ZM8 18C8 19.1934 8.47411 20.338 9.31802 21.182C10.1619 22.0259 11.3065 22.5 12.5 22.5H17.5C18.6935 22.5 19.8381 22.0259 20.682 21.182C21.5259 20.338 22 19.1934 22 18V13C22 11.8931 21.592 10.8251 20.8541 10.0001C20.1161 9.17505 19.1 8.65096 18 8.52797V11.586C18.582 11.792 19 12.346 19 13V18C19 18.3978 18.842 18.7793 18.5607 19.0606C18.2794 19.3419 17.8978 19.5 17.5 19.5H12.5C12.1022 19.5 11.7206 19.3419 11.4393 19.0606C11.158 18.7793 11 18.3978 11 18V8.75597C10.1224 9.06624 9.36266 9.64101 8.82537 10.4011C8.28809 11.1612 7.99972 12.0692 8 13V18Z" fill="white"/>
</svg>
