<svg width="191" height="40" viewBox="0 0 191 40" fill="none" xmlns="http://www.w3.org/2000/svg">
<rect width="191" height="40" rx="16" fill="#F5FA93"/>
<path d="M17.996 14.496C17.996 13.3025 18.4701 12.1579 19.314 11.314C20.1579 10.4701 21.3025 9.99597 22.496 9.99597H27.504C28.6672 9.99614 29.7852 10.4467 30.6235 11.2533C31.4617 12.0598 31.955 13.1596 32 14.322V19.676C31.9653 20.5771 31.6608 21.447 31.1259 22.1731C30.591 22.8991 29.8504 23.4478 29 23.748L29.004 14.496C29.004 14.0981 28.846 13.7166 28.5647 13.4353C28.2834 13.154 27.9018 12.996 27.504 12.996H22.496C22.0982 12.996 21.7166 13.154 21.4353 13.4353C21.154 13.7166 20.996 14.0981 20.996 14.496V19.504C20.996 20.158 21.416 20.714 22 20.92V23.976C20.8993 23.8539 19.8822 23.3302 19.1434 22.5051C18.4047 21.68 17.9961 20.6115 17.996 19.504V14.496ZM24 25.5C24 26.6934 24.4741 27.838 25.318 28.682C26.1619 29.5259 27.3065 30 28.5 30H33.5C34.6935 30 35.8381 29.5259 36.682 28.682C37.5259 27.838 38 26.6934 38 25.5V20.5C38 19.3931 37.592 18.3251 36.8541 17.5001C36.1161 16.6751 35.1 16.151 34 16.028V19.086C34.582 19.292 35 19.846 35 20.5V25.5C35 25.8978 34.842 26.2793 34.5607 26.5606C34.2794 26.8419 33.8978 27 33.5 27H28.5C28.1022 27 27.7206 26.8419 27.4393 26.5606C27.158 26.2793 27 25.8978 27 25.5V16.256C26.1224 16.5662 25.3627 17.141 24.8254 17.9011C24.2881 18.6612 23.9997 19.5692 24 20.5V25.5Z" fill="black"/>
<path d="M59.192 29.36L54.152 24.344L56.168 22.328L61.184 27.344L59.192 29.36ZM53.096 29.36C51.368 29.36 49.876 28.984 48.62 28.232C47.372 27.48 46.408 26.428 45.728 25.076C45.056 23.724 44.72 22.152 44.72 20.36C44.72 18.568 45.056 16.996 45.728 15.644C46.408 14.292 47.372 13.24 48.62 12.488C49.876 11.736 51.368 11.36 53.096 11.36C54.824 11.36 56.312 11.736 57.56 12.488C58.816 13.24 59.78 14.292 60.452 15.644C61.132 16.996 61.472 18.568 61.472 20.36C61.472 22.152 61.132 23.724 60.452 25.076C59.78 26.428 58.816 27.48 57.56 28.232C56.312 28.984 54.824 29.36 53.096 29.36ZM53.096 26.288C54.192 26.304 55.104 26.068 55.832 25.58C56.56 25.092 57.104 24.4 57.464 23.504C57.832 22.608 58.016 21.56 58.016 20.36C58.016 19.16 57.832 18.12 57.464 17.24C57.104 16.36 56.56 15.676 55.832 15.188C55.104 14.7 54.192 14.448 53.096 14.432C52 14.416 51.088 14.652 50.36 15.14C49.632 15.628 49.084 16.32 48.716 17.216C48.356 18.112 48.176 19.16 48.176 20.36C48.176 21.56 48.356 22.6 48.716 23.48C49.084 24.36 49.632 25.044 50.36 25.532C51.088 26.02 52 26.272 53.096 26.288ZM70.8995 29.36C69.5075 29.36 68.2835 29.08 67.2275 28.52C66.1715 27.952 65.3475 27.156 64.7555 26.132C64.1635 25.108 63.8675 23.904 63.8675 22.52V11.744L67.1795 11.72V22.496C67.1795 23.064 67.2755 23.58 67.4675 24.044C67.6595 24.508 67.9235 24.908 68.2595 25.244C68.6035 25.58 68.9995 25.84 69.4475 26.024C69.9035 26.2 70.3875 26.288 70.8995 26.288C71.4275 26.288 71.9155 26.196 72.3635 26.012C72.8195 25.828 73.2155 25.568 73.5515 25.232C73.8875 24.896 74.1475 24.496 74.3315 24.032C74.5235 23.568 74.6195 23.056 74.6195 22.496V11.72H77.9315V22.52C77.9315 23.904 77.6355 25.108 77.0435 26.132C76.4515 27.156 75.6275 27.952 74.5715 28.52C73.5155 29.08 72.2915 29.36 70.8995 29.36ZM81.5216 29V11.72H84.7856V29H81.5216ZM95.7991 29.36C94.0711 29.36 92.5791 28.984 91.3231 28.232C90.0751 27.48 89.1111 26.428 88.4311 25.076C87.7591 23.724 87.4231 22.152 87.4231 20.36C87.4231 18.568 87.7591 16.996 88.4311 15.644C89.1111 14.292 90.0751 13.24 91.3231 12.488C92.5791 11.736 94.0711 11.36 95.7991 11.36C97.7831 11.36 99.4471 11.852 100.791 12.836C102.143 13.82 103.095 15.152 103.647 16.832L100.359 17.744C100.039 16.696 99.4991 15.884 98.7391 15.308C97.9791 14.724 96.9991 14.432 95.7991 14.432C94.7031 14.432 93.7871 14.676 93.0511 15.164C92.3231 15.652 91.7751 16.34 91.4071 17.228C91.0391 18.116 90.8551 19.16 90.8551 20.36C90.8551 21.56 91.0391 22.604 91.4071 23.492C91.7751 24.38 92.3231 25.068 93.0511 25.556C93.7871 26.044 94.7031 26.288 95.7991 26.288C96.9991 26.288 97.9791 25.996 98.7391 25.412C99.4991 24.828 100.039 24.016 100.359 22.976L103.647 23.888C103.095 25.568 102.143 26.9 100.791 27.884C99.4471 28.868 97.7831 29.36 95.7991 29.36ZM106.289 29V11.72H109.553V19.688L116.129 11.72H120.113L112.889 20.24L120.569 29H116.441L109.553 21.128V29H106.289ZM122.49 29V11.72H125.754V25.952H133.194V29H122.49ZM135.475 29V11.72H138.739V29H135.475ZM142.336 29V11.72H145.648L153.16 23.24V11.72H156.472V29H153.16L145.648 17.48V29H142.336ZM159.821 29V11.72H163.085V19.688L169.661 11.72H173.645L166.421 20.24L174.101 29H169.973L163.085 21.128V29H159.821Z" fill="black"/>
</svg>
