<svg width="80" height="80" viewBox="0 0 80 80" fill="none" xmlns="http://www.w3.org/2000/svg">
<path fill-rule="evenodd" clip-rule="evenodd" d="M33.296 18.8131C33.1078 17.6986 32.966 16.5967 32.8744 15.4948C32.7363 13.8418 32.8217 12.1762 32.7727 10.5232C32.7514 9.82191 32.6673 7.99363 32.7012 7.73066C33.0086 5.43902 34.862 5.08835 35.4041 5.02573C35.6664 4.98817 38.3593 4.68776 38.9403 7.66814C39.6531 11.3122 39.8815 14.9813 39.6292 18.5753C40.2178 21.6308 41.2242 24.6737 42.5531 27.4287C47.841 38.386 57.9174 39.4504 68.8346 39.3502C70.5136 39.3252 71.9078 40.64 71.9956 42.3055C72.0835 43.9836 70.8337 45.4362 69.1622 45.5864C63.0599 46.175 52.2329 51.0589 48.4897 56.1431C47.7067 57.2075 47.2512 59.7747 46.6489 62.2917C45.8081 65.7855 44.808 69.2417 43.6874 70.6943C43.5193 70.9197 41.4751 73.2239 40.8652 73.562C39.3996 74.3635 38.2263 73.9001 37.56 73.4743C36.8937 73.0485 36.1395 72.2095 35.8383 70.8195C35.5234 69.3669 35.7894 66.3864 35.7404 65.7478C35.5623 63.4311 35.098 58.8854 34.1506 54.9784C33.6399 52.8746 33.0952 50.9336 32.1943 49.9694C28.8589 46.4004 23.5257 46.9264 19.0346 47.515C18.5189 47.5776 18.0031 47.6528 17.4887 47.7154C15.6603 48.2538 13.719 48.6545 11.6674 48.8924C8.56913 49.2556 8.05969 46.4129 8.03209 46.2251C7.97436 45.8119 7.75976 43.6831 10.095 42.8315C10.3498 42.7439 12.2296 42.3306 12.9536 42.1678C13.9625 41.9424 14.9827 41.7671 16.0066 41.6043C26.5838 38.3234 32.3285 29.1067 33.296 18.8131ZM36.9263 30.1963C40.9192 38.4361 46.9789 42.4183 54.1617 44.2215H54.1604C49.6756 46.5633 45.596 49.4936 43.4339 52.4364C42.6132 53.5509 41.8604 55.7924 41.1815 58.3094C40.8138 55.9677 40.3169 53.4757 39.6606 51.3468C38.914 48.9174 37.9088 46.9014 36.787 45.6993C34.6211 43.3826 31.9031 42.0927 28.9805 41.4541C32.4791 38.361 35.1319 34.504 36.9263 30.1963Z" fill="#F5FA93"/>
</svg>
