<svg width="80" height="80" viewBox="0 0 80 80" fill="none" xmlns="http://www.w3.org/2000/svg">
<path fill-rule="evenodd" clip-rule="evenodd" d="M35.6074 30.0564C28.1813 23.952 22.164 16.6825 17.6422 8.21291C16.7379 6.52595 14.6336 5.88246 12.9292 6.78681C11.2423 7.69115 10.5987 9.79554 11.503 11.4999C16.4769 20.7695 23.051 28.7347 31.1901 35.4303C32.6684 36.6477 34.877 36.439 36.0944 34.9607C37.3118 33.4651 37.0856 31.2738 35.6074 30.0564Z" fill="#F5FA93"/>
<path fill-rule="evenodd" clip-rule="evenodd" d="M31.6475 6.28254C32.0301 13.3086 32.378 20.3347 32.8128 27.3608C32.9345 29.2738 34.5867 30.7347 36.4997 30.613C38.4127 30.4912 39.8736 28.8391 39.7519 26.926C39.3171 19.9173 38.9692 12.9087 38.5866 5.88257C38.4822 3.97474 36.8301 2.50517 34.917 2.613C33.004 2.72082 31.5257 4.36428 31.6475 6.28254Z" fill="#F5FA93"/>
<path fill-rule="evenodd" clip-rule="evenodd" d="M57.4667 7.70873C53.0145 14.4218 47.9712 20.613 42.8929 26.8739C41.6756 28.3695 41.9015 30.5609 43.3971 31.7609C44.8928 32.9783 47.0842 32.7522 48.2842 31.2565C53.5016 24.8391 58.6842 18.4565 63.2755 11.5521C64.3364 9.95214 63.8841 7.79569 62.2841 6.73483C60.7015 5.67396 58.5275 6.10873 57.4667 7.70873Z" fill="#F5FA93"/>
<path fill-rule="evenodd" clip-rule="evenodd" d="M74.7128 32.6652C62.6433 33.2043 49.8259 33.2217 37.7563 32.4565C35.8433 32.3521 34.1911 33.7956 34.0694 35.7261C33.9476 37.6391 35.4085 39.2913 37.3215 39.413C49.6346 40.1782 62.7129 40.1608 75.026 39.6217C76.939 39.5347 78.4345 37.9 78.3476 35.987C78.2606 34.0739 76.6259 32.5782 74.7128 32.6652Z" fill="#F5FA93"/>
<path fill-rule="evenodd" clip-rule="evenodd" d="M31.181 34.8737C38.6245 43.9867 46.3289 52.9259 53.2333 62.4563C54.3637 64.0042 56.5377 64.3519 58.1029 63.2215C59.6507 62.091 59.9985 59.917 58.868 58.3692C51.8767 48.7344 44.0855 39.691 36.5551 30.4736C35.3377 28.9953 33.1463 28.7693 31.668 29.9867C30.1723 31.2041 29.9636 33.3954 31.181 34.8737Z" fill="#F5FA93"/>
<path fill-rule="evenodd" clip-rule="evenodd" d="M33.4351 37.5179C35.383 47.0136 35.9221 56.0919 36.0612 65.7093C36.0786 67.6223 37.6613 69.1527 39.5743 69.1353C41.5048 69.1005 43.0351 67.5353 43.0004 65.6048C42.8612 55.5353 42.2874 46.0571 40.2526 36.1092C39.8526 34.231 38.0265 33.0135 36.1309 33.4135C34.2526 33.7961 33.0351 35.6397 33.4351 37.5179Z" fill="#F5FA93"/>
<path fill-rule="evenodd" clip-rule="evenodd" d="M33.7491 36.7531C28.1143 48.0226 25.21 60.5444 19.1752 71.5705C18.2535 73.2401 18.8794 75.3617 20.5664 76.2835C22.2533 77.2052 24.3578 76.5791 25.2796 74.9095C31.3491 63.8138 34.2882 51.2226 39.9751 39.8661C40.8273 38.1443 40.1316 36.0574 38.4273 35.1878C36.7055 34.3356 34.6187 35.0313 33.7491 36.7531Z" fill="#F5FA93"/>
<path fill-rule="evenodd" clip-rule="evenodd" d="M36.8501 34.1956C25.6327 36.1782 14.4327 37.0825 3.14579 38.4217C1.23274 38.6477 -0.123778 40.3695 0.102309 42.2826C0.328396 44.1956 2.0503 45.5521 3.96334 45.3261C15.372 43.9869 26.7111 43.0478 38.0677 41.0478C39.9459 40.6999 41.2155 38.8912 40.885 37.013C40.5372 35.1173 38.7458 33.8478 36.8501 34.1956Z" fill="#F5FA93"/>
<path fill-rule="evenodd" clip-rule="evenodd" d="M44.6555 28.9096C42.3425 28.8053 40.1512 28.6487 37.8903 28.3182C35.9772 28.04 34.2207 29.3617 33.9424 31.2574C33.6642 33.153 34.9858 34.927 36.8815 35.2052C39.3858 35.5705 41.8033 35.7444 44.3424 35.8487C46.2554 35.9357 47.8901 34.4574 47.9597 32.5269C48.0467 30.6139 46.5686 28.9966 44.6555 28.9096Z" fill="#F5FA93"/>
</svg>
