<svg width="31" height="26" viewBox="0 0 31 26" fill="none" xmlns="http://www.w3.org/2000/svg">
<path d="M30.524 3.58269C29.4107 4.07602 28.2147 4.40935 26.9573 4.56002C28.2547 3.78374 29.2253 2.56198 29.688 1.12269C28.4691 1.84667 27.1351 2.35628 25.744 2.62935C24.8085 1.63051 23.5694 0.968456 22.2191 0.745987C20.8688 0.523517 19.4828 0.753077 18.2763 1.39902C17.0698 2.04497 16.1104 3.07117 15.5469 4.31829C14.9834 5.56542 14.8474 6.96369 15.16 8.29602C12.6902 8.17202 10.2742 7.53009 8.06856 6.41189C5.86296 5.2937 3.91712 3.72424 2.35733 1.80535C1.824 2.72535 1.51733 3.79202 1.51733 4.92802C1.51673 5.95068 1.76857 6.95768 2.2505 7.85966C2.73243 8.76165 3.42954 9.53074 4.28 10.0987C3.2937 10.0673 2.32916 9.8008 1.46666 9.32135V9.40135C1.46656 10.8357 1.96271 12.2259 2.87091 13.336C3.77911 14.4462 5.04342 15.2079 6.44933 15.492C5.53437 15.7396 4.57511 15.7761 3.644 15.5987C4.04066 16.8328 4.81332 17.9121 5.85382 18.6853C6.89431 19.4585 8.15055 19.8869 9.44666 19.9107C7.24644 21.6379 4.52918 22.5748 1.732 22.5707C1.2365 22.5708 0.74143 22.5419 0.249329 22.484C3.08863 24.3096 6.39378 25.2784 9.76933 25.2747C21.196 25.2747 27.4427 15.8107 27.4427 7.60269C27.4427 7.33602 27.436 7.06669 27.424 6.80002C28.6391 5.92132 29.6879 4.83322 30.5213 3.58669L30.524 3.58269Z" fill="white"/>
</svg>
