<svg width="32" height="32" viewBox="0 0 32 32" fill="none" xmlns="http://www.w3.org/2000/svg">
<g clip-path="url(#clip0_152_4939)">
<path d="M31.3333 8.67606C31.1521 8.0297 30.7992 7.44452 30.312 6.98273C29.811 6.50673 29.1971 6.16624 28.528 5.99339C26.024 5.33339 15.992 5.33339 15.992 5.33339C11.8098 5.28581 7.62857 5.49509 3.472 5.96006C2.80292 6.14568 2.19008 6.49378 1.688 6.97339C1.19467 7.44806 0.837332 8.03339 0.650666 8.67473C0.202256 11.0904 -0.0156117 13.5432 -1.06363e-06 16.0001C-0.0160011 18.4547 0.201332 20.9067 0.650666 23.3254C0.833332 23.9641 1.18933 24.5467 1.684 25.0174C2.17867 25.4881 2.79467 25.8281 3.472 26.0081C6.00933 26.6667 15.992 26.6667 15.992 26.6667C20.1796 26.7144 24.3661 26.5051 28.528 26.0401C29.1971 25.8672 29.811 25.5267 30.312 25.0507C30.799 24.589 31.1516 24.0038 31.332 23.3574C31.7921 20.9427 32.0158 18.4888 32 16.0307C32.0346 13.5622 31.8112 11.0968 31.3333 8.67473V8.67606ZM12.8027 20.5654V11.4361L21.1493 16.0014L12.8027 20.5654Z" fill="white"/>
</g>
<defs>
<clipPath id="clip0_152_4939">
<rect width="32" height="32" fill="white"/>
</clipPath>
</defs>
</svg>
